<svg width="32" height="32" viewBox="0 0 32 32" fill="none" xmlns="http://www.w3.org/2000/svg">
<path d="M10.8276 14.6667C10.8276 14.2096 10.4571 13.8391 10 13.8391C9.54294 13.8391 9.17241 14.2096 9.17241 14.6667H10.8276ZM9.17241 22.6667C9.17241 23.1237 9.54294 23.4942 10 23.4942C10.4571 23.4942 10.8276 23.1237 10.8276 22.6667H9.17241ZM22.5057 22.6667C22.5057 23.1237 22.8763 23.4942 23.3333 23.4942C23.7904 23.4942 24.1609 23.1237 24.1609 22.6667H22.5057ZM15.3333 18.6667H14.5057H15.3333ZM14.5057 22.6667C14.5057 23.1237 14.8763 23.4942 15.3333 23.4942C15.7904 23.4942 16.1609 23.1237 16.1609 22.6667H14.5057ZM10.8276 10.6667C10.8276 10.2096 10.4571 9.83907 10 9.83907C9.54294 9.83907 9.17241 10.2096 9.17241 10.6667H10.8276ZM9.17241 12C9.17241 12.4571 9.54294 12.8276 10 12.8276C10.4571 12.8276 10.8276 12.4571 10.8276 12H9.17241ZM9.17241 14.6667V22.6667H10.8276V14.6667H9.17241ZM24.1609 22.6667V18.6667H22.5057V22.6667H24.1609ZM24.1609 18.6667C24.1609 16.0005 21.9995 13.8391 19.3333 13.8391V15.4942C21.0854 15.4942 22.5057 16.9146 22.5057 18.6667H24.1609ZM19.3333 13.8391C16.6671 13.8391 14.5057 16.0005 14.5057 18.6667H16.1609C16.1609 16.9146 17.5813 15.4942 19.3333 15.4942V13.8391ZM14.5057 18.6667V22.6667H16.1609V18.6667H14.5057ZM9.17241 10.6667V12H10.8276V10.6667H9.17241Z" fill="#0C61BF"/>
</svg>
