<svg width="22" height="17" viewBox="0 0 22 17" fill="none" xmlns="http://www.w3.org/2000/svg">
<path d="M19.0049 4.06815C19.0189 4.24711 19.0189 4.42506 19.0189 4.603C19.0189 10.0487 14.6506 16.3237 6.66729 16.3237C4.20775 16.3237 1.9228 15.6477 0 14.4737C0.349208 14.5116 0.685483 14.5249 1.0487 14.5249C3.00275 14.5293 4.90147 13.9094 6.4388 12.7649C5.53282 12.7493 4.65458 12.4657 3.9267 11.9536C3.19881 11.4415 2.65763 10.7266 2.37871 9.90856C2.64709 9.9464 2.91654 9.97197 3.19892 9.97197C3.58801 9.97197 3.97925 9.92084 4.34247 9.83186C3.35926 9.6435 2.47515 9.13783 1.84048 8.40084C1.20581 7.66384 0.859757 6.74102 0.861165 5.78928V5.73815C1.43995 6.04393 2.11142 6.23516 2.82277 6.26073C2.22684 5.88499 1.7382 5.37513 1.40043 4.77664C1.06267 4.17814 0.886292 3.50963 0.887033 2.83073C0.887033 2.06578 1.10152 1.36423 1.47767 0.752679C2.56856 2.02591 3.92914 3.06754 5.47129 3.81009C7.01345 4.55264 8.70279 4.97956 10.4299 5.0632C10.3631 4.7564 10.3221 4.43835 10.3221 4.11928C10.3218 3.57825 10.4339 3.04248 10.652 2.54258C10.8701 2.04269 11.1899 1.58847 11.5931 1.20591C11.9963 0.823346 12.475 0.519932 13.0018 0.313015C13.5287 0.106097 14.0933 -0.000268325 14.6635 5.08327e-07C15.9138 5.08327e-07 17.0422 0.497014 17.8355 1.30083C18.8074 1.12249 19.7395 0.785836 20.5904 0.305776C20.2664 1.25769 19.5877 2.06486 18.6816 2.57608C19.5436 2.4828 20.386 2.2677 21.181 1.93794C20.5873 2.75924 19.8516 3.47945 19.0049 4.06815Z" fill="#1C96E8"/>
</svg>
