<svg width="28" height="28" viewBox="0 0 28 28" fill="none" xmlns="http://www.w3.org/2000/svg">
<g clip-path="url(#clip0_1895_9397)">
<path d="M16.6251 23.625H23.6251C24.49 23.625 25.225 23.4299 25.8353 23.0899L16.6251 17.5958V23.625ZM27.8513 20.2169C27.9511 19.7719 28.0018 19.3007 28.0018 18.8121V16.6246H21.8287L27.8496 20.2169M0.153177 7.76956C0.049491 8.23503 -0.00186916 8.71063 5.19568e-05 9.1875V11.375H6.1968L0.153177 7.76956ZM11.3751 4.375H4.37505C3.51624 4.375 2.78605 4.5675 2.17836 4.90263L11.3751 10.3889V4.375ZM2.20636 23.1114C2.80836 23.4369 3.52893 23.625 4.37505 23.625H11.3751V17.6418L2.20636 23.1114ZM5.19568e-05 16.625V18.8125C5.19568e-05 19.3161 0.053427 19.8013 0.158864 20.2576L6.24843 16.625H5.19568e-05ZM25.8629 4.92406C25.2477 4.57494 24.5027 4.375 23.6251 4.375H16.6251V10.4348L25.8629 4.92406ZM28.0001 11.375V9.1875C28.0001 8.70888 27.9506 8.24731 27.8548 7.81069L21.8803 11.375H28.0001Z" fill="#2E3192"/>
<path d="M21.8803 11.375L27.8547 7.81069C27.5809 6.55769 26.9141 5.52038 25.8628 4.92406L16.625 10.4348V4.375H15.75V12.25H28V11.375H21.8803ZM0 15.75V16.625H6.24837L0.158813 20.2576C0.448 21.5066 1.13488 22.5321 2.20631 23.1114L11.375 17.6418V23.625H12.25V15.75H0ZM28 15.75H15.75V23.625H16.625V17.5958L25.8352 23.0904C26.8944 22.5006 27.5695 21.469 27.8495 20.2178L21.8286 16.625H28V15.75ZM11.375 4.375V10.3889L2.17831 4.90263C1.11519 5.48888 0.43575 6.51875 0.152688 7.76956L6.19675 11.375H0V12.25H12.25V4.375H11.375Z" fill="#E6E7E8"/>
<path d="M15.75 12.25V4.375H12.25V12.25H0V15.75H12.25V23.625H15.75V15.75H28V12.25H15.75Z" fill="#BE1E2D"/>
<path d="M9.59778 11.375L0.825902 6.13855C0.63734 6.41855 0.485965 6.72655 0.36084 7.05468L7.60015 11.375H9.59646M27.6018 21.0394L20.2461 16.625H18.2091L27.096 21.9708C27.3021 21.6828 27.472 21.3706 27.6018 21.0411M26.5645 5.42105L16.6113 11.375L18.6322 11.3763L27.2207 6.23436C27.0291 5.88568 26.827 5.6608 26.5645 5.42105ZM0.79309 21.8203C0.989891 22.12 1.22673 22.3915 1.49703 22.6271L11.4025 16.625H9.40615L0.79309 21.8203Z" fill="#BE1E2D"/>
</g>
<defs>
<clipPath id="clip0_1895_9397">
<rect width="28" height="28" fill="white"/>
</clipPath>
</defs>
</svg>
