<svg width="91" height="91" viewBox="0 0 91 91" fill="none" xmlns="http://www.w3.org/2000/svg">
<path d="M75 46.5C75 62.7924 61.7924 76 45.5 76C29.2076 76 16 62.7924 16 46.5C16 30.2076 29.2076 17 45.5 17C61.7924 17 75 30.2076 75 46.5Z" fill="#00349A"/>
<path d="M38.1308 40.1786V40.8462C38.1308 42.0824 37.7689 43.0838 37.0451 43.8503C36.3214 44.6168 35.3866 45 34.2407 45C33.0193 45 32.0054 44.5673 31.1987 43.7019C30.3996 42.8283 30 41.7651 30 40.5124C30 39.2514 30.3958 38.1841 31.1874 37.3104C31.9865 36.4368 32.9741 36 34.1502 36C34.889 36 35.5637 36.1854 36.1744 36.5563C36.7851 36.919 37.26 37.4052 37.5993 38.0151L36.2649 38.8558C36.0764 38.5014 35.7899 38.2129 35.4054 37.9904C35.0285 37.7679 34.6063 37.6566 34.1389 37.6566C33.385 37.6566 32.763 37.9286 32.273 38.4725C31.7905 39.0082 31.5493 39.6882 31.5493 40.5124C31.5493 41.3283 31.7943 42.0041 32.2843 42.5398C32.7819 43.0673 33.4378 43.331 34.252 43.331C34.8551 43.331 35.3527 43.1868 35.7447 42.8984C36.1442 42.6016 36.4156 42.1978 36.5589 41.6868H34.1615V40.1786H38.1308Z" fill="white"/>
<path d="M42.3845 36.1731C43.4701 36.1731 44.3748 36.5893 45.0985 37.4217C45.8298 38.2541 46.1954 39.2802 46.1954 40.5C46.1954 41.7198 45.8298 42.7459 45.0985 43.5783C44.3748 44.4107 43.4701 44.8269 42.3845 44.8269H39.2407V36.1731H42.3845ZM42.3845 43.1951C43.0705 43.1951 43.6284 42.9478 44.0581 42.4533C44.4879 41.9505 44.7027 41.2995 44.7027 40.5C44.7027 39.7005 44.4879 39.0536 44.0581 38.5591C43.6284 38.0563 43.0705 37.8049 42.3845 37.8049H40.8013V43.1951H42.3845Z" fill="white"/>
<path d="M50.2539 36.1731C51.0153 36.1731 51.6562 36.4533 52.1763 37.0137C52.6965 37.5742 52.9566 38.2624 52.9566 39.0783C52.9566 39.8942 52.6965 40.5824 52.1763 41.1429C51.6562 41.7033 51.0153 41.9835 50.2539 41.9835H48.863V44.8269H47.3024V36.1731H50.2539ZM50.2539 40.3887C50.5856 40.3887 50.8608 40.2651 51.0794 40.0179C51.2981 39.7624 51.4074 39.4492 51.4074 39.0783C51.4074 38.6992 51.2981 38.386 51.0794 38.1387C50.8608 37.8915 50.5856 37.7679 50.2539 37.7679H48.863V40.3887H50.2539Z" fill="white"/>
<path d="M58.315 44.8269L56.7206 41.8228H55.5332V44.8269H53.9726V36.1731H57.139C57.8702 36.1731 58.4922 36.4533 59.0049 37.0137C59.5175 37.5742 59.7738 38.25 59.7738 39.0412C59.7738 39.5769 59.6344 40.0755 59.3554 40.5371C59.0765 40.9904 58.7071 41.3324 58.2472 41.5632L60 44.8269H58.315ZM55.5332 37.7679V40.3269H57.139C57.433 40.3269 57.6855 40.2033 57.8966 39.956C58.1077 39.7005 58.2133 39.3956 58.2133 39.0412C58.2133 38.6868 58.1077 38.386 57.8966 38.1387C57.6855 37.8915 57.433 37.7679 57.139 37.7679H55.5332Z" fill="white"/>
<path d="M24.0576 57C23.172 57 22.4397 56.7107 21.8605 56.1322C21.2868 55.5537 21 54.843 21 54C21 53.157 21.2868 52.4463 21.8605 51.8678C22.4397 51.2893 23.172 51 24.0576 51C24.5922 51 25.0823 51.1267 25.5279 51.3802C25.979 51.6336 26.3298 51.9752 26.5805 52.405L25.9038 52.7934C25.7367 52.4738 25.4861 52.2204 25.1519 52.0331C24.8233 51.8402 24.4585 51.7438 24.0576 51.7438C23.3837 51.7438 22.8323 51.9587 22.4035 52.3884C21.9802 52.8182 21.7686 53.3554 21.7686 54C21.7686 54.6391 21.9802 55.1736 22.4035 55.6033C22.8323 56.0331 23.3837 56.2479 24.0576 56.2479C24.4585 56.2479 24.8233 56.1543 25.1519 55.9669C25.4861 55.7741 25.7367 55.5207 25.9038 55.2066L26.5805 55.5868C26.3354 56.0165 25.9873 56.3609 25.5362 56.6198C25.0851 56.8733 24.5922 57 24.0576 57Z" fill="white"/>
<path d="M32.7238 56.124C32.139 56.708 31.4233 57 30.5768 57C29.7303 57 29.0146 56.708 28.4298 56.124C27.845 55.5399 27.5527 54.832 27.5527 54C27.5527 53.1625 27.845 52.4545 28.4298 51.876C29.0146 51.292 29.7303 51 30.5768 51C31.4233 51 32.139 51.292 32.7238 51.876C33.3141 52.4545 33.6093 53.1625 33.6093 54C33.6093 54.832 33.3141 55.5399 32.7238 56.124ZM28.9645 55.6033C29.3989 56.0331 29.9363 56.2479 30.5768 56.2479C31.2173 56.2479 31.7519 56.0331 32.1808 55.6033C32.6152 55.168 32.8324 54.6336 32.8324 54C32.8324 53.3609 32.6152 52.8264 32.1808 52.3967C31.7519 51.9614 31.2173 51.7438 30.5768 51.7438C29.9363 51.7438 29.3989 51.9614 28.9645 52.3967C28.5356 52.8264 28.3212 53.3609 28.3212 54C28.3212 54.6336 28.5356 55.168 28.9645 55.6033Z" fill="white"/>
<path d="M40.4329 51.1074V56.8926H39.6643V52.3719L37.7512 55.5207H37.651L35.7379 52.3802V56.8926H34.961V51.1074H35.8382L37.7011 54.1653L39.5557 51.1074H40.4329Z" fill="white"/>
<path d="M44.2229 51.1074C44.7632 51.1074 45.2115 51.2865 45.5679 51.6446C45.9299 51.9972 46.1109 52.438 46.1109 52.9669C46.1109 53.4904 45.9299 53.9311 45.5679 54.2893C45.2115 54.6474 44.7632 54.8264 44.2229 54.8264H42.878V56.8926H42.101V51.1074H44.2229ZM44.2229 54.1074C44.546 54.1074 44.8133 54 45.0249 53.7851C45.2366 53.5647 45.3424 53.292 45.3424 52.9669C45.3424 52.6364 45.2366 52.3636 45.0249 52.1488C44.8133 51.9339 44.546 51.8264 44.2229 51.8264H42.878V54.1074H44.2229Z" fill="white"/>
<path d="M48.2232 56.1653H50.7461V56.8926H47.4463V51.1074H48.2232V56.1653Z" fill="white"/>
<path d="M51.9431 51.1074H52.72V56.8926H51.9431V51.1074Z" fill="white"/>
<path d="M58.2433 56.8926L57.7672 55.595H55.1357L54.6595 56.8926H53.8324L56.0128 51.1074H56.89L59.0704 56.8926H58.2433ZM55.403 54.876H57.4998L56.4472 52.0248L55.403 54.876Z" fill="white"/>
<path d="M63.8119 51.1074H64.5888V56.8926H63.9623L60.9549 52.5702V56.8926H60.1779V51.1074H60.8045L63.8119 55.4215V51.1074Z" fill="white"/>
<path d="M70 51.1074V51.8347H68.2707V56.8926H67.5022V51.8347H65.7812V51.1074H70Z" fill="white"/>
<path d="M45.4926 0L46.7946 4.20131H51L47.5983 6.7987L48.8973 11L45.4926 8.40261L42.1027 11L43.4017 6.7987L40 4.20131H44.2055L45.4926 0Z" fill="#EDC01F"/>
<path d="M65.4985 6L66.7991 9.82044H71L67.6019 12.1824L68.8995 16L65.4985 13.6409L62.1123 16L63.4099 12.1824L60 9.82044H64.2009L65.4985 6Z" fill="#EDC01F"/>
<path d="M79.9987 21L81.181 24.8204H85L81.9109 27.1824L83.0905 31L79.9987 28.6409L76.9203 31L78.0999 27.1824L75 24.8204H78.819L79.9987 21Z" fill="#EDC01F"/>
<path d="M85.4985 41L86.7991 44.8204H91L87.6019 47.1824L88.8995 51L85.4985 48.6409L82.1123 51L83.4099 47.1824L80 44.8204H84.2009L85.4985 41Z" fill="#EDC01F"/>
<path d="M80.4985 60L81.7991 63.8204H86L82.6019 66.1824L83.8995 70L80.4985 67.6409L77.1123 70L78.4099 66.1824L75 63.8204H79.2009L80.4985 60Z" fill="#EDC01F"/>
<path d="M65.4985 75L66.7991 78.8204H71L67.6019 81.1824L68.8995 85L65.4985 82.6409L62.1123 85L63.4099 81.1824L60 78.8204H64.2009L65.4985 75Z" fill="#EDC01F"/>
<path d="M45.4985 81L46.7991 84.8204H51L47.6019 87.1824L48.8995 91L45.4985 88.6409L42.1123 91L43.4099 87.1824L40 84.8204H44.2009L45.4985 81Z" fill="#EDC01F"/>
<path d="M24.9987 75L26.181 78.8204H30L26.9109 81.1824L28.0905 85L24.9987 82.6409L21.9203 85L23.0999 81.1824L20 78.8204H23.819L24.9987 75Z" fill="#EDC01F"/>
<path d="M10.4985 61L11.7991 64.8204H16L12.6019 67.1824L13.8995 71L10.4985 68.6409L7.11231 71L8.40991 67.1824L5 64.8204H9.20091L10.4985 61Z" fill="#EDC01F"/>
<path d="M5.49852 41L6.79909 44.8204H11L7.60195 47.1824L8.89953 51L5.49852 48.6409L2.11231 51L3.40991 47.1824L0 44.8204H4.20091L5.49852 41Z" fill="#EDC01F"/>
<path d="M10.4985 21L11.7991 24.8204H16L12.6019 27.1824L13.8995 31L10.4985 28.6409L7.11231 31L8.40991 27.1824L5 24.8204H9.20091L10.4985 21Z" fill="#EDC01F"/>
<path d="M24.9987 6L26.181 9.82044H30L26.9109 12.1824L28.0905 16L24.9987 13.6409L21.9203 16L23.0999 12.1824L20 9.82044H23.819L24.9987 6Z" fill="#EDC01F"/>
</svg>
