<svg width="68" height="69" viewBox="0 0 68 69" fill="none" xmlns="http://www.w3.org/2000/svg">
<path d="M14.021 4.69678L23.8039 11.0398V23.5569L14.021 29.8933L13.9332 29.8392L4.23828 23.5502V11.0398L14.021 4.69678Z" fill="#FFEDBA"/>
<path d="M58.0067 43.0664L67.7894 49.4096V61.9199L58.0067 68.263L57.9187 68.2021L48.2238 61.9199V49.4027L58.0067 43.0664Z" fill="#FFEDBA"/>
<path d="M67.7894 11.0398V23.5569L58.0067 29.8933L57.9187 29.8392L48.2238 23.5502V11.0398L58.0067 4.69678L67.7894 11.0398Z" fill="#FFEDBA"/>
<path d="M14.021 43.0664L23.8039 49.4096V61.9199L14.021 68.263L13.9332 68.2021L4.23828 61.9199V49.4027L14.021 43.0664Z" fill="#FFEDBA"/>
<path d="M64.595 6.91079L54.8111 0.566556C54.5876 0.421337 54.2997 0.421337 54.0756 0.566556L44.2917 6.90823C44.1263 7.01506 43.9834 7.23316 43.9834 7.4755V15.7811H20.92V7.47806C20.92 7.24164 20.7821 7.02125 20.6118 6.91079L10.8277 0.566556C10.6043 0.421337 10.3163 0.421337 10.0922 0.566556L0.308282 6.90823C0.144511 7.01398 0 7.2341 0 7.4755V19.9891C0 20.2183 0.116228 20.4316 0.308282 20.5564L9.69383 26.642V39.1918L0.308282 45.2747C0.144511 45.3805 0 45.6006 0 45.842V58.3556C0 58.5848 0.116228 58.798 0.308282 58.9229L10.001 65.2084C10.002 65.2089 10.0025 65.2099 10.0035 65.2104C10.0711 65.2336 10.3987 65.5457 10.8277 65.2673L20.6116 58.9256C20.8038 58.8014 20.9199 58.5874 20.9199 58.3583V55.2994H43.9831V58.3557C43.9831 58.5849 44.0993 58.7981 44.2914 58.923L53.9841 65.2085C53.9851 65.2091 53.9856 65.21 53.9866 65.2105C54.0543 65.2228 54.3788 65.5479 54.8108 65.2674L64.5947 58.9257C64.7869 58.8015 64.903 58.5876 64.903 58.3584V45.8448C64.903 45.6084 64.7613 45.3857 64.5947 45.2775L55.1191 39.1338V26.7004L64.5947 20.5592C64.7869 20.435 64.903 20.2211 64.903 19.9919V7.47806C64.9033 7.24205 64.7621 7.01937 64.595 6.91079ZM54.4433 1.9394L62.984 7.47806C54.3645 13.0641 54.812 12.7741 54.443 13.0132L45.9026 7.47537L54.4433 1.9394ZM45.3354 8.7197L53.6771 14.1289V25.0306L45.3354 19.6214V17.1336H49.5061C49.8794 17.1336 50.1821 16.8312 50.1821 16.4574C50.1821 16.0836 49.8794 15.7811 49.5061 15.7811H45.3354V8.7197ZM15.9485 17.1336H19.5679V19.6239L11.0459 25.1474V14.2452L19.5679 8.72239V15.7813H15.9485C15.5752 15.7813 15.2724 16.0837 15.2724 16.4575C15.2724 16.8313 15.5752 17.1336 15.9485 17.1336ZM10.46 1.9394L19.0007 7.47806L17.3357 8.55723L10.4598 13.0134L1.91932 7.4755L10.46 1.9394ZM1.35218 8.7197L9.69383 14.1289V25.0306L1.35218 19.6214V8.7197ZM9.69383 40.8032V46.5526C9.69383 46.9264 9.99659 47.2288 10.3699 47.2288C10.7433 47.2288 11.046 46.9264 11.046 46.5526V40.6866L19.0009 45.8447L16.6328 47.3796L10.46 51.3802L6.17021 48.5987L1.91918 45.842L9.69383 40.8032ZM1.35218 47.0862L9.69383 52.4954V63.3977L1.35218 57.9885V47.0862ZM19.5679 57.9904L11.0459 63.5145V52.6123L19.5679 47.0889V53.947H15.9485C15.5752 53.947 15.2724 54.2495 15.2724 54.6233C15.2724 54.9971 15.5752 55.2995 15.9485 55.2995H19.5679V57.9904ZM20.92 53.9469V45.8446C20.92 45.7849 20.9114 45.7265 20.8963 45.6702C20.8914 45.6514 20.8817 45.6345 20.8751 45.6162C20.862 45.58 20.8491 45.544 20.8299 45.5106C20.8185 45.4904 20.8031 45.4732 20.7897 45.4543C20.7696 45.4263 20.7501 45.3983 20.7257 45.3735C20.7078 45.3551 20.687 45.3403 20.6671 45.324C20.6484 45.3087 20.6324 45.2906 20.6118 45.2773L11.046 39.0752V26.7586L20.6118 20.5589C20.804 20.4347 20.92 20.2208 20.92 19.9917V17.1335H43.9832V19.989C43.9832 20.2181 44.0995 20.4315 44.2915 20.5563L53.7672 26.7003V39.1332L44.2915 45.2745C44.1292 45.3793 43.9832 45.5988 43.9832 45.8417V53.9466H20.92V53.9469ZM45.3354 55.2994H49.5061C49.8794 55.2994 50.1821 54.997 50.1821 54.6232C50.1821 54.2493 49.8794 53.9469 49.5061 53.9469H45.3354V47.0862L53.6771 52.4954V63.3977L45.3354 57.9885V55.2994ZM63.5511 57.9904L55.0291 63.5145V52.6123L63.5511 47.0889V57.9904ZM62.984 45.8447C52.2674 52.7905 55.1623 50.9143 54.4433 51.3804L50.1535 48.5989L45.9024 45.8421L53.767 40.7449V46.5527C53.767 46.9266 54.0698 47.229 54.4431 47.229C54.8165 47.229 55.1192 46.9266 55.1192 46.5527V40.7452L62.984 45.8447ZM63.5511 19.6239L55.0291 25.1474V14.2452L63.5511 8.72226V19.6239Z" fill="#54557A"/>
</svg>
