<svg viewBox="0 0 82 82" fill="none" xmlns="http://www.w3.org/2000/svg">
<path d="M59.9456 12.422V65.6589C59.9456 68.0755 57.9864 70.0346 55.5699 70.0346H22.5091C20.0925 70.0346 18.1334 68.0755 18.1334 65.6589V12.422C18.1334 10.0054 20.0923 8.04626 22.5091 8.04626H55.5699C57.9864 8.04626 59.9456 10.0052 59.9456 12.422Z" fill="#E3D6E9"/>
<path d="M31.236 79.5626H64.2913C67.1498 79.5626 69.4752 77.241 69.4752 74.3866V21.1424C69.4752 18.2886 67.1498 15.9672 64.2913 15.9672H62.6918V14.3676C62.6918 11.5092 60.3699 9.18373 57.5161 9.18373H55.9154V7.58817C55.9154 4.73215 53.5919 2.40894 50.7358 2.40894H17.6753C14.8193 2.40894 12.4958 4.73215 12.4958 7.58817V60.8251C12.4958 63.6811 14.8193 66.0044 17.6753 66.0044H19.2771V67.6039C19.2771 70.4623 21.5991 72.7878 24.4529 72.7878H26.0519V74.3866C26.0521 77.241 28.3775 79.5626 31.236 79.5626ZM64.2915 17.5744C66.2635 17.5744 67.868 19.1748 67.868 21.1424V74.3866C67.868 76.3542 66.2633 77.9552 64.2915 77.9552H31.236C29.264 77.9552 27.6595 76.354 27.6595 74.3866V72.7878H57.5162C60.37 72.7878 62.6919 70.4623 62.6919 67.6039V17.5744H64.2915ZM14.1032 60.8251V7.58801C14.1032 5.61878 15.7058 4.01618 17.6755 4.01618H50.736C52.7055 4.01618 54.3083 5.61878 54.3083 7.58801V60.825C54.3083 62.7942 52.7057 64.3968 50.736 64.3968H17.6753C15.7058 64.3969 14.1032 62.7942 14.1032 60.8251ZM20.8847 67.6038V66.0042H50.736C53.592 66.0042 55.9156 63.681 55.9156 60.825V10.791H57.5162C59.4839 10.791 61.0845 12.3952 61.0845 14.3674V67.6038C61.0845 69.576 59.4839 71.1802 57.5162 71.1802H24.453C22.4854 71.1804 20.8847 69.5762 20.8847 67.6038Z" fill="#54557A"/>
<path d="M49.9071 59.1926V9.22057C49.9071 8.77629 49.5472 8.41687 49.1034 8.41687H19.3079C18.8641 8.41687 18.5042 8.77629 18.5042 9.22057V59.1926C18.5042 59.6369 18.8641 59.9963 19.3079 59.9963H49.1034C49.5472 59.9963 49.9071 59.6369 49.9071 59.1926ZM48.2997 58.3889H20.1116V10.0243H48.2997V58.3889Z" fill="#54557A"/>
<path d="M33.5333 32.4277C33.8506 32.9115 34.5589 32.9123 34.8773 32.4285L39.6555 25.1521C39.8313 24.8845 39.8313 24.5383 39.6558 24.2708L34.8778 16.9835C34.5581 16.496 33.8493 16.5032 33.5337 16.9827L28.756 24.2599C28.5802 24.5276 28.5802 24.8737 28.7557 25.1412L33.5333 32.4277ZM34.205 18.889L38.0221 24.7111L34.2058 30.5221L30.3887 24.7008L34.205 18.889Z" fill="#54557A"/>
<path d="M33.5332 51.4296C33.8505 51.9134 34.5588 51.9142 34.8773 51.4304L39.6555 44.154C39.8312 43.8863 39.8312 43.5402 39.6558 43.2719L34.8776 35.9854C34.5563 35.4971 33.848 35.5075 33.5335 35.9854L28.7558 43.2618C28.5801 43.5295 28.5801 43.8756 28.7555 44.1431L33.5332 51.4296ZM34.205 37.8917L38.0221 43.7129L34.2058 49.5239L30.389 43.7027L34.205 37.8917Z" fill="#54557A"/>
</svg>
