<svg viewBox="0 0 68 69" fill="none" xmlns="http://www.w3.org/2000/svg">
<path d="M64.6514 19.9405V64.8105H10.0905V19.9405C10.0905 17.4006 11.872 15.338 14.0656 15.338H60.6763C62.8699 15.338 64.6514 17.4006 64.6514 19.9405Z" fill="#D7E6EC"/>
<path d="M67.0976 59.9771H61.8862V15.9229C61.8862 12.9367 59.7856 10.5047 57.2065 10.5047H49.3893L40.8941 0.668648C40.7744 0.530113 40.5617 0.422363 40.3889 0.422363H21.1383C19.3835 0.422363 17.9476 2.08479 17.9476 4.11664V10.5047H10.5958C8.01662 10.5047 5.91608 12.9367 5.91608 15.9229V59.9771H0.704611C0.319069 59.9771 0 60.3466 0 60.793C0 64.8874 2.88492 68.2277 6.42127 68.2277H61.3677C64.904 68.2277 67.7889 64.8874 67.7889 60.793C67.8022 60.3466 67.4832 59.9771 67.0976 59.9771ZM41.0935 3.22385L47.4483 10.5816H41.0935V3.22385ZM19.3569 4.11664C19.3569 2.97757 20.1545 2.06939 21.125 2.06939H39.671V11.3974C39.671 11.8438 39.99 12.2133 40.3756 12.2133H48.4321V49.9102C48.4321 51.0493 47.6344 51.9575 46.6639 51.9575H21.1383C20.1545 51.9575 19.3702 51.0339 19.3702 49.9102V4.11664H19.3569ZM7.3253 15.9229C7.3253 13.8449 8.7877 12.1517 10.5825 12.1517H17.9476V49.9256C17.9476 51.9575 19.3835 53.6199 21.1383 53.6199H46.6639C48.4188 53.6199 49.8546 51.9575 49.8546 49.9256V12.1517H57.2065C59.0012 12.1517 60.4636 13.8449 60.4636 15.9229V59.9771H7.3253V15.9229ZM61.381 66.596H6.42127C3.8953 66.596 1.80806 64.4257 1.4624 61.6088H66.3398C65.9942 64.4257 63.9069 66.596 61.381 66.596Z" fill="#54557A"/>
<path d="M23.9833 8.05508H34.6588C35.0444 8.05508 35.3634 7.68574 35.3634 7.23946C35.3634 6.79317 35.0444 6.42383 34.6588 6.42383H23.9833C23.5978 6.42383 23.2787 6.79317 23.2787 7.23946C23.2787 7.68574 23.5978 8.05508 23.9833 8.05508Z" fill="#54557A"/>
<path fill-rule="evenodd" clip-rule="evenodd" d="M27.5066 36.6421C26.4255 35.5383 25.6923 34.1413 25.3978 32.6246C25.1009 31.1036 25.2534 29.5291 25.8366 28.0934C26.4148 26.6657 27.4019 25.4406 28.6741 24.5721C31.2551 22.8093 34.653 22.8093 37.2341 24.5721C38.5062 25.4406 39.4933 26.6657 40.0716 28.0934C40.6547 29.5291 40.8072 31.1036 40.5103 32.6246C40.2158 34.1413 39.4826 35.5383 38.4016 36.6421C36.9699 38.1113 35.0054 38.9399 32.9541 38.9399C30.9027 38.9399 28.9382 38.1113 27.5066 36.6421V36.6421Z" stroke="#54557A" stroke-width="1.875" stroke-linecap="round" stroke-linejoin="round"/>
<path d="M32.9628 26.0036C32.4479 26.0581 32.0747 26.5198 32.1293 27.0347C32.1839 27.5495 32.6455 27.9227 33.1604 27.8681L32.9628 26.0036ZM35.277 29.1151C35.4789 29.5919 36.029 29.8148 36.5058 29.6129C36.9826 29.4111 37.2055 28.8609 37.0037 28.3841L35.277 29.1151ZM39.1776 35.8586C38.8112 35.4928 38.2176 35.4933 37.8518 35.8598C37.486 36.2262 37.4865 36.8198 37.853 37.1856L39.1776 35.8586ZM42.088 41.4131C42.4544 41.7789 43.048 41.7784 43.4138 41.4119C43.7796 41.0455 43.7791 40.4519 43.4126 40.0861L42.088 41.4131ZM33.1604 27.8681C34.0635 27.7725 34.923 28.2788 35.277 29.1151L37.0037 28.3841C36.3277 26.7875 34.687 25.8209 32.9628 26.0036L33.1604 27.8681ZM37.853 37.1856L42.088 41.4131L43.4126 40.0861L39.1776 35.8586L37.853 37.1856Z" fill="#54557A"/>
</svg>
