<svg viewBox="0 0 82 82" fill="none" xmlns="http://www.w3.org/2000/svg">
<path d="M40.2066 80.8994C24.9434 80.8994 12.5262 68.4823 12.5262 53.2196C12.5262 37.9494 24.9434 25.5266 40.2066 25.5266C55.4763 25.5266 67.8991 37.9494 67.8991 53.2196C67.8991 68.4823 55.4763 80.8994 40.2066 80.8994Z" fill="#F4D1D3"/>
<path d="M36.7296 78.2258C52.4423 78.2258 65.2258 65.448 65.2258 49.7421C65.2258 34.029 52.4422 21.2458 36.7296 21.2458C21.0232 21.2458 8.24512 34.029 8.24512 49.7421C8.24512 65.448 21.0233 78.2258 36.7296 78.2258ZM36.7296 22.8533C51.5562 22.8533 63.6186 34.9155 63.6186 49.7422C63.6186 64.5617 51.5563 76.6185 36.7296 76.6185C21.9093 76.6185 9.85252 64.5617 9.85252 49.7422C9.85252 34.9155 21.9093 22.8533 36.7296 22.8533Z" fill="#54557A"/>
<path d="M36.7312 71.5803C48.7786 71.5803 58.5798 61.7829 58.5798 49.7407C58.5798 37.6928 48.7786 27.8914 36.7312 27.8914C24.6885 27.8914 14.8914 37.693 14.8914 49.7407C14.8912 61.7831 24.6885 71.5803 36.7312 71.5803ZM36.7312 29.4988C47.8926 29.4988 56.9725 38.5795 56.9725 49.7409C56.9725 60.8971 47.8926 69.973 36.7312 69.973C25.5747 69.973 16.4986 60.8971 16.4986 49.7409C16.4986 38.5795 25.5747 29.4988 36.7312 29.4988Z" fill="#54557A"/>
<path d="M25.1516 54.5923C25.5959 54.5923 25.9553 54.2324 25.9553 53.7886V48.2237L30.1927 54.251C30.3944 54.5372 30.757 54.6605 31.0929 54.5552C31.4272 54.4492 31.6541 54.1392 31.6541 53.7888V45.6837C31.6541 45.2399 31.2946 44.88 30.8504 44.88C30.4061 44.88 30.0467 45.2399 30.0467 45.6837V51.2486L25.8093 45.2213C25.3609 44.5837 24.3479 44.8983 24.3479 45.6835V53.7886C24.3479 54.2324 24.7075 54.5923 25.1516 54.5923Z" fill="#54557A"/>
<path d="M42.3805 46.487H44.5466V53.7884C44.5466 54.2322 44.9061 54.5921 45.3503 54.5921C45.7946 54.5921 46.154 54.2322 46.154 53.7884V46.487H48.3194C48.7637 46.487 49.1231 46.1271 49.1231 45.6833C49.1231 45.2395 48.7637 44.8796 48.3194 44.8796H42.3805C41.9362 44.8796 41.5768 45.2395 41.5768 45.6833C41.5768 46.1271 41.9362 46.487 42.3805 46.487Z" fill="#54557A"/>
<path d="M34.7298 54.5923C35.1741 54.5923 35.5336 54.2324 35.5336 53.7886V50.5397H39.0418C39.4861 50.5397 39.8455 50.1798 39.8455 49.736C39.8455 49.2922 39.4861 48.9323 39.0418 48.9323H35.5336V46.487H39.0418C39.4861 46.487 39.8455 46.1271 39.8455 45.6833C39.8455 45.2395 39.4861 44.8796 39.0418 44.8796H34.7298C34.2856 44.8796 33.9261 45.2395 33.9261 45.6833V53.7884C33.9261 54.2324 34.2856 54.5923 34.7298 54.5923Z" fill="#54557A"/>
<path d="M60.6756 21.9301L60.4212 2.51149C60.4118 1.79782 59.5414 1.44865 59.042 1.96131L49.9977 11.2452C49.4996 11.7565 49.8687 12.6189 50.5838 12.6095L54.3625 12.56L54.4863 22.0112C54.5087 23.718 55.9151 25.0881 57.6213 25.0658C59.3278 25.0436 60.6979 23.6371 60.6756 21.9301ZM56.0936 21.9901L55.9592 11.7355C55.9534 11.2912 55.5888 10.9366 55.1451 10.9424L52.5027 10.977L58.8393 4.47262L59.0683 21.9513C59.079 22.7714 58.4204 23.4481 57.6003 23.4588C56.7801 23.4696 56.1043 22.8103 56.0936 21.9901Z" fill="#54557A"/>
<path d="M73.547 14.0836L69.7687 14.1331L69.6449 4.68196C69.6225 2.97592 68.216 1.60568 66.5095 1.62803C64.803 1.65039 63.4329 3.05684 63.4553 4.76304L63.7097 24.1825C63.719 24.8961 64.5895 25.2453 65.0889 24.7326L74.1331 15.448C74.6295 14.9384 74.2642 14.0742 73.547 14.0836ZM68.9862 15.7508L71.6281 15.7162L65.2915 22.2213L65.0625 4.74198C65.0518 3.92186 65.7105 3.24604 66.5306 3.23529C67.3507 3.22455 68.0268 3.88289 68.0376 4.70301L68.1719 14.9577C68.1779 15.4019 68.5423 15.7566 68.9862 15.7508Z" fill="#54557A"/>
</svg>
