<svg width="64" height="64" viewBox="0 0 64 64" fill="none" xmlns="http://www.w3.org/2000/svg">
<path d="M63.1176 34.0199C63.1176 50.3334 49.8909 63.555 33.5813 63.555C17.2717 63.555 4.0531 50.3333 4.0531 34.0199C4.0531 17.7064 17.2716 4.47644 33.5813 4.47644C49.891 4.47644 63.1176 17.7063 63.1176 34.0199Z" fill="#CFE7E4"/>
<path d="M30.1567 0.422363C13.5282 0.422363 0 13.9573 0 30.5944C0 47.2265 13.5282 60.7578 30.1567 60.7578C46.7895 60.7578 60.3212 47.2265 60.3212 30.5944C60.3212 13.9573 46.7895 0.422363 30.1567 0.422363ZM30.1567 59.5008C14.2212 59.5008 1.25672 46.5335 1.25672 30.5943C1.25672 14.6506 14.2212 1.67926 30.1567 1.67926C46.0966 1.67926 59.0646 14.6506 59.0646 30.5943C59.0645 46.5335 46.0966 59.5008 30.1567 59.5008Z" fill="#54557A"/>
<path d="M38.6344 52.2448C37.8772 52.5425 37.0948 52.8026 36.3085 53.0186C35.9737 53.1106 35.7771 53.4565 35.8689 53.7908C35.9612 54.1269 36.3081 54.3224 36.641 54.2304C37.4703 54.0027 38.2957 53.7282 39.094 53.4143C39.4171 53.2872 39.5761 52.9225 39.449 52.5997C39.3222 52.2767 38.9583 52.1175 38.6344 52.2448Z" fill="#54557A"/>
<path d="M48.7926 15.6597C48.5165 15.8696 48.4628 16.2637 48.673 16.5402C49.1669 17.19 49.6314 17.8718 50.053 18.5668C50.2327 18.8632 50.6189 18.958 50.916 18.7782C51.2127 18.5981 51.3076 18.2118 51.1275 17.9151C50.6832 17.1827 50.1938 16.4643 49.6732 15.7794C49.4637 15.5032 49.0696 15.4495 48.7926 15.6597Z" fill="#54557A"/>
<path d="M45.8717 47.7158C45.2716 48.2668 44.6355 48.7924 43.9811 49.2778C43.7022 49.4846 43.6439 49.8783 43.8507 50.1568C44.0577 50.4358 44.4512 50.4936 44.7296 50.2872C45.4191 49.7757 46.0894 49.222 46.7215 48.6418C46.9771 48.4071 46.9942 48.0094 46.7595 47.7538C46.5246 47.499 46.1277 47.4808 45.8717 47.7158Z" fill="#54557A"/>
<path d="M51.0037 40.8881C50.6424 41.6171 50.2373 42.3356 49.7995 43.0244C49.6136 43.3171 49.7001 43.7055 49.9931 43.8917C50.2848 44.077 50.6734 43.9919 50.8604 43.6981C51.3216 42.9722 51.7486 42.2147 52.1297 41.4464C52.2836 41.1356 52.1567 40.7586 51.8459 40.6042C51.5357 40.4499 51.1585 40.5776 51.0037 40.8881Z" fill="#54557A"/>
<path d="M53.3175 32.6693C53.2451 33.4835 53.1288 34.3002 52.9717 35.0965C52.9045 35.4367 53.1261 35.7671 53.4667 35.8343C53.8027 35.9021 54.1371 35.6826 54.2045 35.3394C54.3703 34.5 54.4929 33.6391 54.5693 32.7809C54.6 32.4352 54.3447 32.1299 53.9993 32.0992C53.6543 32.0726 53.3481 32.3238 53.3175 32.6693Z" fill="#54557A"/>
<path d="M53.0595 26.557C53.1194 26.8992 53.4456 27.1269 53.787 27.0672C54.1288 27.0074 54.3574 26.6816 54.2972 26.3397C54.1487 25.4944 53.953 24.647 53.7151 23.8208C53.6191 23.4876 53.2724 23.2952 52.9373 23.3909C52.6039 23.4869 52.4115 23.8352 52.5075 24.1687C52.733 24.9521 52.9187 25.7555 53.0595 26.557Z" fill="#54557A"/>
<path d="M13.175 14.7282C13.4122 14.4748 13.3987 14.0772 13.1449 13.8403C12.8915 13.6035 12.4939 13.6163 12.257 13.8703C11.6709 14.4974 11.1114 15.163 10.5937 15.8483C10.3848 16.1253 10.4397 16.5193 10.7167 16.7285C10.9941 16.9374 11.3878 16.8822 11.5969 16.6054C12.0879 15.9552 12.619 15.3234 13.175 14.7282Z" fill="#54557A"/>
<path d="M42.3499 10.7969C43.0421 11.2249 43.7202 11.6953 44.3657 12.1947C44.6399 12.4065 45.0342 12.3572 45.2471 12.0821C45.4594 11.8078 45.4091 11.4133 45.1345 11.2006C44.4546 10.6748 43.7401 10.1792 43.0107 9.72797C42.7158 9.54598 42.3286 9.6366 42.1458 9.932C41.9634 10.2272 42.0548 10.6143 42.3499 10.7969Z" fill="#54557A"/>
<path d="M30.2521 53.8443C29.8136 53.8334 29.0513 53.8576 27.708 53.716C27.3595 53.6811 27.0536 53.9302 27.017 54.2751C26.9809 54.6203 27.2308 54.9294 27.576 54.966C28.994 55.1153 30.1869 55.0994 30.2521 55.1009C30.5991 55.1009 30.8804 54.8195 30.8804 54.4726C30.8804 54.1256 30.5991 53.8443 30.2521 53.8443Z" fill="#54557A"/>
<path d="M34.3863 7.72083C35.1859 7.86841 35.9881 8.0608 36.7706 8.29299C37.1075 8.39325 37.4541 8.19849 37.5518 7.86953C37.6505 7.53695 37.4609 7.18722 37.1283 7.08834C36.3033 6.84325 35.4574 6.64035 34.614 6.48489C34.274 6.42017 33.9452 6.64749 33.8822 6.98895C33.8193 7.3303 34.0448 7.65799 34.3863 7.72083Z" fill="#54557A"/>
<path d="M6.91358 30.3031C6.91784 29.9561 6.63996 29.6714 6.29286 29.6671C6.29036 29.6671 6.2876 29.6671 6.28485 29.6671C5.9415 29.6671 5.66112 29.9432 5.65686 30.2878C5.65799 30.3511 5.62983 31.4636 5.76 32.87C5.79005 33.1958 6.06405 33.4404 6.38499 33.4404C6.75487 33.4404 7.04527 33.1232 7.01122 32.7541C6.88404 31.3768 6.91596 30.4323 6.91358 30.3031Z" fill="#54557A"/>
<path d="M7.79056 24.2502C8.01273 23.4675 8.27998 22.6871 8.58452 21.9302C8.71395 21.608 8.55811 21.242 8.23629 21.1126C7.91322 20.9819 7.54747 21.1392 7.41867 21.4608C7.09748 22.2588 6.81585 23.082 6.58165 23.9073C6.48689 24.2411 6.68079 24.5883 7.01462 24.6832C7.35296 24.7791 7.69668 24.5803 7.79056 24.2502Z" fill="#54557A"/>
<path d="M8.37444 38.7149C8.25264 38.3897 7.89065 38.2253 7.5657 38.3468C7.24076 38.4683 7.07578 38.8303 7.19757 39.1555C7.49861 39.9596 7.84584 40.7567 8.23061 41.525C8.3857 41.8359 8.76497 41.961 9.07339 41.8058C9.38394 41.6506 9.50962 41.2732 9.35415 40.963C8.98965 40.234 8.65983 39.4777 8.37444 38.7149Z" fill="#54557A"/>
<path d="M17.8978 10.8395C18.5902 10.4076 19.3122 10.0086 20.0429 9.65428C20.3552 9.50269 20.4854 9.12693 20.3341 8.8145C20.1829 8.5022 19.807 8.37302 19.4943 8.52335C18.7236 8.89736 17.9627 9.31769 17.2325 9.77294C16.9382 9.95669 16.8483 10.3442 17.0318 10.6387C17.2148 10.932 17.6016 11.0235 17.8978 10.8395Z" fill="#54557A"/>
<path d="M21.7642 52.2769C21.0054 51.982 20.2531 51.643 19.5281 51.2688C19.22 51.1098 18.8408 51.2305 18.6816 51.539C18.5223 51.8473 18.6435 52.2263 18.9518 52.3856C19.7161 52.7798 20.5088 53.1376 21.3087 53.4484C21.6327 53.5746 21.9965 53.4132 22.122 53.0904C22.2479 52.767 22.0875 52.4027 21.7642 52.2769Z" fill="#54557A"/>
<path d="M12.7851 46.0271C12.5546 45.7681 12.1576 45.7442 11.8981 45.9752C11.6389 46.2057 11.6156 46.603 11.8463 46.8622C12.4167 47.5035 13.0275 48.1219 13.662 48.7006C13.9186 48.9344 14.3156 48.9164 14.5496 48.6598C14.7834 48.4033 14.7653 48.006 14.5088 47.7722C13.9065 47.2229 13.3267 46.6358 12.7851 46.0271Z" fill="#54557A"/>
<path d="M25.8484 7.73585C26.647 7.58552 27.4647 7.47599 28.2784 7.41065C28.6241 7.38299 28.8822 7.0802 28.8543 6.7341C28.8264 6.38775 28.526 6.12289 28.1778 6.15819C27.3202 6.22691 26.458 6.34232 25.6159 6.50053C25.275 6.565 25.0505 6.8932 25.1146 7.23441C25.1789 7.57613 25.5082 7.79969 25.8484 7.73585Z" fill="#54557A"/>
<path d="M30.1566 11.7354C19.7646 11.7354 11.3102 20.1954 11.3102 30.5945C11.3102 40.9886 19.7646 49.445 30.1566 49.445C40.5529 49.445 49.0109 40.9886 49.0109 30.5945C49.0109 20.1954 40.5529 11.7354 30.1566 11.7354ZM30.1566 48.188C20.4577 48.188 12.5669 40.2956 12.5669 30.5944C12.5669 20.8887 20.4577 12.9922 30.1566 12.9922C39.86 12.9922 47.7543 20.8887 47.7543 30.5944C47.7542 40.2956 39.86 48.188 30.1566 48.188Z" fill="#54557A"/>
<path d="M24.6445 24.9298C24.2975 24.9298 24.0161 25.2113 24.0161 25.5583V33.6358L18.0827 25.1969C17.7323 24.6979 16.9404 24.9451 16.9404 25.5583V35.6222C16.9404 35.9693 17.2218 36.2507 17.5688 36.2507C17.9158 36.2507 18.1972 35.9693 18.1972 35.6222V27.5448L24.1305 35.9837C24.2874 36.2068 24.5706 36.3042 24.834 36.2216C25.0951 36.1387 25.2727 35.8963 25.2727 35.6222V25.5583C25.2728 25.2111 24.9915 24.9298 24.6445 24.9298Z" fill="#54557A"/>
<path d="M32.9628 26.1866C33.3097 26.1866 33.5911 25.9051 33.5911 25.5581C33.5911 25.211 33.3097 24.9296 32.9628 24.9296H27.6102C27.2632 24.9296 26.9818 25.211 26.9818 25.5581V35.622C26.9818 35.969 27.2632 36.2505 27.6102 36.2505C27.9571 36.2505 28.2385 35.969 28.2385 35.622V31.2185H32.9628C33.3097 31.2185 33.5911 30.9371 33.5911 30.59C33.5911 30.243 33.3097 29.9615 32.9628 29.9615H28.2385V26.1866H32.9628Z" fill="#54557A"/>
<path d="M35.3792 24.9298C35.0322 24.9298 34.7509 25.2113 34.7509 25.5583C34.7509 25.9054 35.0322 26.1868 35.3792 26.1868H38.4375V35.6222C38.4375 35.9693 38.7189 36.2507 39.0659 36.2507C39.4129 36.2507 39.6942 35.9693 39.6942 35.6222V26.1868H42.7526C43.0995 26.1868 43.3809 25.9054 43.3809 25.5583C43.3809 25.2113 43.0995 24.9298 42.7526 24.9298H35.3792Z" fill="#54557A"/>
</svg>
