<svg width="82" height="82" viewBox="0 0 82 82" fill="none" xmlns="http://www.w3.org/2000/svg">
<path d="M35.8341 42.4271L27.5768 28.1273L35.8346 13.8265H52.3467L60.6017 28.1268L52.3471 42.4271H35.8341Z" fill="#FFEDBA"/>
<path d="M14.5392 64.4553L29.4112 79.327C29.5594 79.4752 29.7649 79.5625 29.9794 79.5625H62.6537C65.418 79.5625 67.6673 77.3131 67.6673 74.5481V7.42315C67.6673 4.65806 65.4179 2.40881 62.6537 2.40881H19.3182C16.5531 2.40881 14.3038 4.65822 14.3038 7.42315V63.8871C14.3037 64.0665 14.3932 64.3092 14.5392 64.4553ZM29.1758 76.8185L23.1117 70.7546L17.0476 64.6906H29.1758V76.8185ZM19.3182 4.01606H62.6539C64.532 4.01606 66.0602 5.54453 66.0602 7.42315V74.548C66.0602 76.4264 64.532 77.9551 62.6539 77.9551H30.7832V63.8871C30.7832 63.4433 30.4233 63.0834 29.9795 63.0834H15.9111V7.42315C15.9111 5.54453 17.4396 4.01606 19.3182 4.01606Z" fill="#54557A"/>
<path d="M32.0346 39.7253C32.1782 39.9741 32.4435 40.1272 32.7307 40.1272H49.2431C49.5303 40.1272 49.7956 39.9741 49.9392 39.7253L58.1943 25.425C58.3379 25.1762 58.3379 24.8701 58.1943 24.6213L49.9392 10.321C49.7956 10.0722 49.5303 9.91919 49.2431 9.91919H32.7312C32.444 9.91919 32.1787 10.0722 32.0351 10.321L23.7773 24.6218C23.634 24.8706 23.634 25.1767 23.7773 25.4255L32.0346 39.7253ZM33.195 11.5266H48.7793L56.5704 25.0232L48.7793 38.5199H33.1945L25.4013 25.0237L33.195 11.5266Z" fill="#54557A"/>
<path d="M55.1202 46.7416C54.676 46.7416 54.3165 47.1015 54.3165 47.5453C54.3165 47.9891 54.676 48.349 55.1202 48.349H57.9551C58.3994 48.349 58.7588 47.9891 58.7588 47.5453C58.7588 47.1015 58.3994 46.7416 57.9551 46.7416H55.1202Z" fill="#54557A"/>
<path d="M24.0166 48.349H50.0711C50.5154 48.349 50.8748 47.9891 50.8748 47.5453C50.8748 47.1015 50.5154 46.7416 50.0711 46.7416H24.0166C23.5728 46.7416 23.2129 47.1015 23.2129 47.5453C23.2129 47.9891 23.5728 48.349 24.0166 48.349Z" fill="#54557A"/>
<path d="M24.0166 55.2709H26.851C27.2948 55.2709 27.6547 54.911 27.6547 54.4672C27.6547 54.0234 27.2948 53.6635 26.851 53.6635H24.0166C23.5728 53.6635 23.2129 54.0234 23.2129 54.4672C23.2129 54.911 23.5728 55.2709 24.0166 55.2709Z" fill="#54557A"/>
<path d="M57.9549 53.6635H31.9007C31.457 53.6635 31.097 54.0234 31.097 54.4672C31.097 54.911 31.457 55.2709 31.9007 55.2709H57.9549C58.3992 55.2709 58.7586 54.911 58.7586 54.4672C58.7586 54.0234 58.3992 53.6635 57.9549 53.6635Z" fill="#54557A"/>
<path d="M33.9357 29.1586C33.4639 29.1586 33.0105 29.0854 32.5754 28.939C32.1443 28.7885 31.7661 28.575 31.4408 28.2985C31.1154 28.0179 30.8816 27.6824 30.7393 27.292L32.1362 26.7796C32.1931 26.9423 32.309 27.0907 32.4839 27.2249C32.6587 27.3591 32.8722 27.4669 33.1244 27.5482C33.3765 27.6295 33.6469 27.6702 33.9357 27.6702C34.2325 27.6702 34.5091 27.6255 34.7653 27.536C35.0255 27.4425 35.235 27.3144 35.3936 27.1517C35.5522 26.985 35.6315 26.7918 35.6315 26.5722C35.6315 26.3485 35.5481 26.1655 35.3814 26.0232C35.2146 25.8768 35.0011 25.7609 34.7409 25.6755C34.4806 25.5901 34.2122 25.525 33.9357 25.4803C33.3297 25.3868 32.7868 25.2424 32.307 25.0472C31.8271 24.852 31.4469 24.5816 31.1663 24.2359C30.8897 23.8902 30.7515 23.4429 30.7515 22.8939C30.7515 22.3774 30.8999 21.926 31.1968 21.5397C31.4936 21.1534 31.884 20.8524 32.368 20.6369C32.8519 20.4214 33.3745 20.3136 33.9357 20.3136C34.4033 20.3136 34.8547 20.3868 35.2899 20.5332C35.725 20.6796 36.1052 20.8931 36.4306 21.1737C36.76 21.4543 36.9958 21.7918 37.1382 22.1863L35.7352 22.6926C35.6782 22.5299 35.5623 22.3815 35.3875 22.2473C35.2126 22.1131 34.9991 22.0074 34.747 21.9301C34.4948 21.8488 34.2244 21.8081 33.9357 21.8081C33.6469 21.804 33.3724 21.8508 33.1122 21.9484C32.856 22.0419 32.6465 22.17 32.4839 22.3327C32.3212 22.4954 32.2399 22.6824 32.2399 22.8939C32.2399 23.1664 32.3151 23.3717 32.4656 23.51C32.6201 23.6483 32.8255 23.7499 33.0817 23.815C33.3379 23.876 33.6225 23.9329 33.9357 23.9858C34.505 24.0753 35.0316 24.2257 35.5156 24.4372C35.9995 24.6487 36.3879 24.9313 36.6807 25.2851C36.9735 25.6348 37.1199 26.0639 37.1199 26.5722C37.1199 27.0887 36.9735 27.5421 36.6807 27.9325C36.3879 28.3188 35.9995 28.6198 35.5156 28.8353C35.0316 29.0508 34.505 29.1586 33.9357 29.1586ZM38.4601 29V20.46H41.5711C42.0225 20.46 42.4291 20.5535 42.7911 20.7406C43.1571 20.9236 43.4458 21.1879 43.6573 21.5336C43.8728 21.8752 43.9806 22.2798 43.9806 22.7475C43.9806 22.9549 43.9501 23.1643 43.8891 23.3758C43.8281 23.5873 43.7345 23.7784 43.6085 23.9492C43.4824 24.1159 43.3197 24.24 43.1205 24.3213C43.3848 24.3864 43.6003 24.5043 43.7671 24.6751C43.9338 24.8459 44.0639 25.0472 44.1575 25.279C44.251 25.5067 44.314 25.7406 44.3466 25.9805C44.3832 26.2164 44.4015 26.436 44.4015 26.6393C44.4015 27.0907 44.2896 27.4933 44.066 27.8471C43.8423 28.2009 43.5414 28.4815 43.1632 28.6889C42.789 28.8963 42.3742 29 41.9188 29H38.4601ZM39.9485 27.7251H41.7663C42.0103 27.7251 42.2299 27.6661 42.4251 27.5482C42.6203 27.4303 42.7768 27.2676 42.8948 27.0602C43.0127 26.8528 43.0717 26.6169 43.0717 26.3526C43.0717 26.1249 43.0127 25.9093 42.8948 25.706C42.7768 25.5027 42.6203 25.338 42.4251 25.2119C42.2299 25.0858 42.0103 25.0228 41.7663 25.0228H39.9485V27.7251ZM39.9485 23.7662H41.4003C41.7012 23.7662 41.9574 23.6727 42.1689 23.4856C42.3844 23.2985 42.4922 23.0505 42.4922 22.7414C42.4922 22.412 42.3844 22.1639 42.1689 21.9972C41.9574 21.8264 41.7012 21.741 41.4003 21.741H39.9485V23.7662ZM51.5479 20.46V21.9484H48.9371V29H47.4487V21.9484H44.8379V20.46H51.5479Z" fill="#54557A"/>
</svg>
