<svg width="35" height="35" viewBox="0 0 35 35" fill="none" xmlns="http://www.w3.org/2000/svg">
<rect width="35" height="35" rx="6.92492" fill="#D2E9E6"/>
<path d="M27.4984 16.3349L19.7462 13.3207L19.3477 14.5012C19.5704 14.6017 24.7789 16.6112 27.0998 17.5155L27.4984 16.3349Z" fill="#46AA9D"/>
<path d="M16.9121 7.86935H18.0843V10.3812H16.9121V7.86935Z" fill="#46AA9D"/>
<path d="M19.4277 10.5668L20.5998 9.31102L21.4284 10.1989L20.2564 11.4546L19.4277 10.5668Z" fill="#46AA9D"/>
<path d="M13.5645 10.1974L14.3931 9.30954L15.5651 10.5653L14.7365 11.4531L13.5645 10.1974Z" fill="#46AA9D"/>
<path d="M8.70312 19.8692L11.1087 26.9504L15.7884 25.1408C14.8473 24.7978 14.047 24.1757 13.4368 23.3846L12.5489 23.7309L12.1482 22.5509L12.7721 22.3076C12.4216 21.5497 12.2226 20.6991 12.2226 19.8005C12.2226 19.3308 12.2914 18.8811 12.3931 18.4455L8.70312 19.8692Z" fill="#46AA9D"/>
<path d="M13.0138 16.8668C13.627 15.8048 14.5494 14.9677 15.6574 14.5226L15.2494 13.3217L7.5 16.3285L8.30187 18.689L13.0138 16.8668Z" fill="#46AA9D"/>
<path d="M16.1719 23.9589L23.8889 26.948L26.6905 18.6965L18.9383 15.6822V15.6948L16.1367 23.9463C16.1484 23.9589 16.1602 23.9589 16.1719 23.9589ZM20.6428 21.693L22.8849 22.5521L22.4843 23.732L20.2421 22.8729L20.6428 21.693Z" fill="#46AA9D"/>
<path d="M15.0874 23.3615L17.7649 15.4717V15.4321C17.6747 15.4254 17.5856 15.4049 17.4953 15.4049C15.2329 15.4049 13.3926 17.3767 13.3926 19.8007C13.3926 21.2534 14.0494 22.5614 15.0874 23.3615Z" fill="#46AA9D"/>
</svg>
