<svg width="35" height="35" viewBox="0 0 35 35" fill="none" xmlns="http://www.w3.org/2000/svg">
<rect width="35" height="35" rx="6.92492" fill="#D2E9E6"/>
<g clip-path="url(#clip0_2337_4797)">
<path d="M18.8075 18.4381H17.0293V19.7082H18.8075C19.1345 19.7082 19.4002 19.4236 19.4002 19.0732C19.4002 18.7228 19.1345 18.4381 18.8075 18.4381Z" fill="#46AA9D"/>
<path d="M18.8075 15.8979H17.0293V17.168H18.8075C19.1345 17.168 19.4002 16.8833 19.4002 16.533C19.4002 16.1826 19.1345 15.8979 18.8075 15.8979Z" fill="#46AA9D"/>
<path d="M25.3269 9.54684H22.956V6.96429H21.7706V9.54684H19.3997V6.96429H18.2143V9.54684H15.8434V6.96429H14.658V9.54684H12.2871V6.96429H11.1017V9.54684H9.91625V10.817H7.50586V12.0871H9.91625V14.6273H7.50586V15.8974H9.91625V18.4376H7.50586V19.7077H9.91625V22.2479H7.50586V23.5181H9.91625V26.0583H11.1017V28.6408H12.2871V26.0583H14.658V28.6408H15.8434V26.0583H18.2143V28.6408H19.3997V26.0583H21.7706V28.6408H22.956V26.0583H25.3269V23.5181H27.7373V22.2479H25.3269V19.7077H27.7373V18.4376H25.3269V15.8974H27.7373V14.6273H25.3269V12.0871H27.7373V10.817H25.3269V9.54684ZM13.4726 23.5181H12.2871V22.2479H13.4726V23.5181ZM13.4726 13.3572H12.2871V12.0871H13.4726V13.3572ZM20.5852 19.0727C20.5852 19.8995 20.0882 20.5978 19.3997 20.8609V22.2479H18.2143V20.9778H17.0289V22.2479H15.8434V20.9778H14.658V19.7077H15.8434V15.8974H14.658V14.6273H15.8434V13.3572H17.0289V14.6273H18.2143V13.3572H19.3997V14.7443C20.0882 15.0073 20.5852 15.7056 20.5852 16.5325C20.5852 17.0222 20.407 17.4647 20.1227 17.8026C20.407 18.1404 20.5852 18.583 20.5852 19.0727ZM22.956 23.5181H21.7706V22.2479H22.956V23.5181ZM22.956 13.3572H21.7706V12.0871H22.956V13.3572Z" fill="#46AA9D"/>
<rect x="14.6484" y="12.0651" width="5.95042" height="10.2007" fill="#46AA9D"/>
<path d="M20.7384 17.1046C20.9227 17.1046 21.1038 17.0579 21.2634 16.9691C21.4133 16.8857 21.5395 16.7678 21.6309 16.6263C21.7223 16.4847 21.7761 16.3237 21.7873 16.1574C21.7986 15.9911 21.7671 15.8247 21.6956 15.6729C21.6241 15.5211 21.5148 15.3887 21.3774 15.2872C21.24 15.1858 21.0787 15.1185 20.9079 15.0914C20.737 15.0643 20.5619 15.0782 20.3979 15.1317C20.2339 15.1853 20.0862 15.277 19.9678 15.3986C19.8495 15.5203 19.7641 15.6681 19.7193 15.8291L18.3895 15.0642C18.5354 14.9221 18.6344 14.7416 18.674 14.5454C18.7135 14.3493 18.6919 14.1463 18.6119 13.9619C18.5319 13.7775 18.397 13.6201 18.2241 13.5093C18.0513 13.3986 17.8484 13.3395 17.6407 13.3395C17.4331 13.3395 17.2301 13.3986 17.0574 13.5094C16.8846 13.6201 16.7497 13.7776 16.6696 13.962C16.5896 14.1464 16.5681 14.3494 16.6077 14.5455C16.6473 14.7417 16.7462 14.9222 16.8922 15.0643L15.5517 15.8356C15.5212 15.6998 15.4611 15.5719 15.3756 15.46C15.2901 15.3481 15.181 15.2549 15.0555 15.1864C14.8747 15.0894 14.6685 15.0451 14.462 15.0596C14.2556 15.0741 14.0582 15.1464 13.894 15.2677C13.7298 15.3889 13.6061 15.5537 13.5381 15.7419C13.4701 15.93 13.4609 16.1331 13.5115 16.3262C13.5486 16.4589 13.6135 16.5829 13.7021 16.6905C13.7908 16.7982 13.9014 16.8873 14.0272 16.9523C14.1529 17.0174 14.2912 17.057 14.4334 17.0688C14.5756 17.0805 14.7188 17.0642 14.8543 17.0208V18.5598C14.7123 18.5116 14.5613 18.4934 14.4114 18.5064C14.2615 18.5195 14.1162 18.5634 13.9855 18.6353C13.8366 18.718 13.7109 18.8348 13.6196 18.975C13.5283 19.1152 13.4741 19.2748 13.4617 19.4399C13.4493 19.605 13.4792 19.7704 13.5487 19.9218C13.6181 20.0732 13.7251 20.2059 13.8602 20.3083C13.9953 20.4107 14.1544 20.4796 14.3237 20.5091C14.4929 20.5386 14.667 20.5278 14.8308 20.4775C14.9947 20.4272 15.1432 20.339 15.2634 20.2207C15.3837 20.1024 15.4719 19.9575 15.5205 19.7988L16.8429 20.5596C16.7031 20.7022 16.6093 20.8808 16.573 21.0738C16.5367 21.2667 16.5595 21.4657 16.6385 21.6464C16.7176 21.8271 16.8496 21.9818 17.0184 22.0916C17.1871 22.2014 17.3854 22.2617 17.5892 22.265C17.7929 22.2683 17.9932 22.2146 18.1657 22.1103C18.3383 22.006 18.4756 21.8557 18.561 21.6777C18.6464 21.4997 18.6762 21.3016 18.6467 21.1076C18.6172 20.9136 18.5297 20.732 18.395 20.5849L19.7124 19.8271C19.7874 20.0766 19.9597 20.2884 20.1934 20.4182C20.344 20.5021 20.5138 20.5489 20.6877 20.5541C20.8615 20.5593 21.034 20.523 21.1897 20.4483C21.3454 20.3736 21.4794 20.2629 21.5798 20.1262C21.6801 19.9894 21.7437 19.8309 21.7647 19.6647C21.7858 19.4985 21.7637 19.3299 21.7005 19.174C21.6372 19.018 21.5348 18.8796 21.4023 18.7711C21.2698 18.6626 21.1115 18.5874 20.9414 18.5522C20.7713 18.517 20.5949 18.523 20.4278 18.5696V17.0549C20.5281 17.0863 20.6328 17.1031 20.7384 17.1046ZM20.4963 16.0295C20.5147 15.9696 20.5567 15.919 20.6133 15.8884C20.6699 15.8579 20.7367 15.8499 20.7993 15.866C20.862 15.8822 20.9156 15.9213 20.9488 15.975C20.9819 16.0287 20.992 16.0927 20.9768 16.1534C20.9584 16.2132 20.9164 16.2638 20.8598 16.2944C20.8032 16.3249 20.7365 16.3329 20.6738 16.3167C20.6112 16.3006 20.5575 16.2615 20.5244 16.2078C20.4912 16.1542 20.4812 16.0902 20.4963 16.0295ZM17.6408 14.1139C17.7058 14.1151 17.7678 14.1408 17.8134 14.1855C17.8589 14.2302 17.8844 14.2904 17.8844 14.353C17.8844 14.4156 17.8589 14.4757 17.8134 14.5204C17.7678 14.5651 17.7058 14.5908 17.6408 14.592C17.5757 14.5908 17.5138 14.5651 17.4682 14.5204C17.4227 14.4757 17.3972 14.4156 17.3972 14.353C17.3972 14.2904 17.4227 14.2302 17.4682 14.1855C17.5138 14.1408 17.5757 14.1151 17.6408 14.1139ZM14.7439 16.1833C14.7101 16.2364 14.656 16.2746 14.5933 16.2899C14.5305 16.3052 14.4641 16.2964 14.408 16.2653C14.3519 16.2342 14.3107 16.1833 14.293 16.1233C14.2754 16.0634 14.2827 15.9992 14.3134 15.9444C14.3473 15.8913 14.4014 15.853 14.4641 15.8377C14.5269 15.8224 14.5933 15.8312 14.6494 15.8623C14.7055 15.8934 14.7468 15.9444 14.7644 16.0043C14.7821 16.0643 14.7747 16.1285 14.7439 16.1833ZM14.7526 19.575C14.5916 19.9999 14.0034 19.5667 14.3879 19.3062C14.4306 19.2833 14.4792 19.2729 14.5279 19.2763C14.5766 19.2798 14.6232 19.2968 14.6619 19.3254C14.7007 19.3539 14.7299 19.3928 14.746 19.4371C14.7621 19.4815 14.7644 19.5294 14.7526 19.575ZM17.6081 21.4907C17.5431 21.4895 17.4811 21.4638 17.4355 21.4191C17.39 21.3744 17.3645 21.3143 17.3645 21.2517C17.3645 21.189 17.39 21.1289 17.4355 21.0842C17.4811 21.0395 17.5431 21.0138 17.6081 21.0126C17.6732 21.0137 17.7353 21.0394 17.781 21.0841C17.8267 21.1288 17.8523 21.189 17.8523 21.2517C17.8523 21.3144 17.8267 21.3746 17.781 21.4193C17.7353 21.464 17.6732 21.4896 17.6081 21.4907ZM19.4941 18.9056L17.6408 19.9716L15.788 18.9058V16.7464L17.6408 15.6807L19.4941 16.7466V18.9056ZM20.505 19.4211C20.5386 19.3675 20.5927 19.3288 20.6557 19.3132C20.7187 19.2976 20.7856 19.3064 20.8419 19.3377C20.8982 19.369 20.9396 19.4203 20.9571 19.4806C20.9746 19.5409 20.9668 19.6053 20.9355 19.6602C20.9018 19.7137 20.8477 19.7524 20.7847 19.7679C20.7217 19.7835 20.6549 19.7747 20.5986 19.7434C20.5423 19.7122 20.501 19.6609 20.4835 19.6007C20.466 19.5404 20.4737 19.476 20.505 19.4211Z" fill="#D2E9E6"/>
</g>
<defs>
<clipPath id="clip0_2337_4797">
<rect width="20.2314" height="21.6765" fill="white" transform="translate(7.50781 6.96429)"/>
</clipPath>
</defs>
</svg>
