<svg width="35" height="35" viewBox="0 0 35 35" fill="none" xmlns="http://www.w3.org/2000/svg">
<rect width="35" height="35" rx="7.15618" fill="#DCDFFF" fill-opacity="0.7"/>
<path d="M10.8474 12.0238C9.78906 13.5238 9.16406 15.3899 9.16406 17.4077C9.16406 22.3363 12.8974 26.3363 17.4974 26.3363C22.0974 26.3363 25.8307 22.3363 25.8307 17.4077C25.8307 12.4792 22.0974 8.47916 17.4974 8.47916" stroke="#2D3FDD" stroke-width="1.43124" stroke-linecap="round" stroke-linejoin="round"/>
<path d="M11.6621 17.409C11.6621 20.8643 14.2704 23.659 17.4954 23.659C20.7204 23.659 23.3288 20.8643 23.3288 17.409C23.3288 13.9536 20.7204 11.159 17.4954 11.159" stroke="#2D3FDD" stroke-width="1.43124" stroke-linecap="round" stroke-linejoin="round"/>
<path d="M17.4941 20.9815C19.3358 20.9815 20.8275 19.3832 20.8275 17.41C20.8275 15.4368 19.3358 13.8386 17.4941 13.8386" stroke="#2D3FDD" stroke-width="1.43124" stroke-linecap="round" stroke-linejoin="round"/>
</svg>
