<svg width="35" height="35" viewBox="0 0 35 35" fill="none" xmlns="http://www.w3.org/2000/svg">
<rect width="35" height="35" rx="7.15618" fill="#DCDFFF" fill-opacity="0.7"/>
<g clip-path="url(#clip0_2337_4810)">
<path d="M22.1816 14.2729H20.4238V15.5285H22.1816C22.5049 15.5285 22.7676 15.2471 22.7676 14.9007C22.7676 14.5544 22.5049 14.2729 22.1816 14.2729Z" fill="#2D3FDD"/>
<path d="M21.0117 6.69754C17.4578 6.69754 14.5664 9.83729 14.5664 13.6451C14.5664 17.4529 17.4578 20.5508 21.0117 20.5508C24.5657 20.5508 27.4961 17.4529 27.4961 13.6451C27.4961 9.83729 24.5657 6.69754 21.0117 6.69754ZM23.9414 14.9007C23.9414 15.718 23.4501 16.4084 22.7695 16.6684V18.0396H21.5977V16.784H20.4258V18.0396H19.2539V16.784H18.082V15.5285H19.2539V11.7617H18.082V10.5061H19.2539V9.25055H20.4258V10.5061H21.5977V9.25055H22.7695V10.6218C23.4501 10.8818 23.9414 11.5721 23.9414 12.3895C23.9414 12.8736 23.7653 13.3111 23.4842 13.6451C23.7653 13.9791 23.9414 14.4166 23.9414 14.9007Z" fill="#2D3FDD"/>
<path d="M22.1816 11.7618H20.4238V13.0174H22.1816C22.5049 13.0174 22.7676 12.7359 22.7676 12.3896C22.7676 12.0432 22.5049 11.7618 22.1816 11.7618Z" fill="#2D3FDD"/>
<path d="M14.7733 28.1262H22.7676V25.5732H16.7663L13.079 21.6225L13.9076 20.7348L16.9082 23.9497L18.5653 22.1743L13.5345 16.7841H7.49414V23.062H9.23895L14.7733 28.1262Z" fill="#2D3FDD"/>
<ellipse cx="21.248" cy="13.393" rx="5" ry="5.35714" fill="#2D3FDD"/>
</g>
<path d="M21.7908 11.6564L22.3408 12.8349C22.4158 12.9957 22.6158 13.1564 22.7825 13.1832L23.7783 13.3617C24.4158 13.4778 24.5658 13.9689 24.1075 14.4599L23.3325 15.2903C23.2033 15.4287 23.1283 15.701 23.17 15.8974L23.3908 16.9287C23.5658 17.7412 23.1617 18.0582 22.4908 17.6341L21.5575 17.0403C21.3867 16.9332 21.1117 16.9332 20.9408 17.0403L20.0075 17.6341C19.3367 18.0582 18.9325 17.7412 19.1075 16.9287L19.3283 15.8974C19.37 15.7055 19.295 15.4332 19.1658 15.2903L18.3908 14.4599C17.9325 13.9689 18.0825 13.4733 18.72 13.3617L19.7158 13.1832C19.8825 13.1519 20.0825 12.9957 20.1575 12.8349L20.7075 11.6564C21.0033 11.018 21.495 11.018 21.7908 11.6564Z" stroke="#E6E9FF" stroke-width="0.715618" stroke-linecap="round" stroke-linejoin="round"/>
<path d="M18.748 12.0537V8.92871" stroke="#E6E9FF" stroke-width="0.715618" stroke-linecap="round" stroke-linejoin="round"/>
<path d="M23.748 12.0537V8.92871" stroke="#E6E9FF" stroke-width="0.715618" stroke-linecap="round" stroke-linejoin="round"/>
<path d="M21.248 9.82157V8.92871" stroke="#E6E9FF" stroke-width="0.715618" stroke-linecap="round" stroke-linejoin="round"/>
<defs>
<clipPath id="clip0_2337_4810">
<rect width="20" height="21.4286" fill="white" transform="translate(7.49805 6.69656)"/>
</clipPath>
</defs>
</svg>
