<svg width="35" height="35" viewBox="0 0 35 35" fill="none" xmlns="http://www.w3.org/2000/svg">
<rect width="35" height="35" rx="6.92492" fill="#D2E9E6"/>
<g clip-path="url(#clip0_2337_4740)">
<path d="M7.49805 28.127H27.498V13.0182H7.49805V28.127ZM16.9121 15.5294H18.084V20.9195L21.0137 17.7806L22.1855 19.0362L24.115 16.9689L24.9436 17.8566L22.1855 20.8116L21.0137 19.5561L18.084 22.695V23.0629H25.1152V24.3184H16.9121V15.5294ZM9.88086 21.8073H11.0527V18.0405H9.88086V16.785H11.0527V15.5294H12.2246V16.785H13.3965V15.5294H14.5684V16.9006C15.2489 17.1606 15.7402 17.8509 15.7402 18.6683C15.7402 19.1524 15.5641 19.5899 15.283 19.9239C15.5641 20.2579 15.7402 20.6954 15.7402 21.1795C15.7402 21.9969 15.2489 22.6872 14.5684 22.9472V24.3184H13.3965V23.0629H12.2246V24.3184H11.0527V23.0629H9.88086V21.8073Z" fill="#46AA9D"/>
<path d="M14.5684 21.1795C14.5684 20.8331 14.3057 20.5517 13.9824 20.5517H12.2246V21.8073H13.9824C14.3057 21.8073 14.5684 21.5259 14.5684 21.1795Z" fill="#46AA9D"/>
<path d="M14.5684 18.6683C14.5684 18.322 14.3057 18.0405 13.9824 18.0405H12.2246V19.2961H13.9824C14.3057 19.2961 14.5684 19.0147 14.5684 18.6683Z" fill="#46AA9D"/>
<path d="M7.49805 11.7626H27.498V6.69846H7.49805V11.7626ZM18.084 9.25147H25.1152V10.5071H18.084V9.25147ZM14.5684 9.25147H15.7402V10.5071H14.5684V9.25147ZM12.2246 9.25147H13.3965V10.5071H12.2246V9.25147ZM9.88086 9.25147H11.0527V10.5071H9.88086V9.25147Z" fill="#46AA9D"/>
<rect x="8.75" y="14.7332" width="17.5" height="10.7143" fill="#46AA9D"/>
<path d="M14.1949 25.7833C15.0026 25.7833 15.6574 25.0818 15.6574 24.2164C15.6574 23.351 15.0026 22.6494 14.1949 22.6494C13.3872 22.6494 12.7324 23.351 12.7324 24.2164C12.7324 25.0818 13.3872 25.7833 14.1949 25.7833Z" stroke="#D2E9E6" stroke-width="0.969489" stroke-linecap="round" stroke-linejoin="round"/>
<path d="M21.0187 23.1717V17.0445C21.0187 15.7387 20.2547 15.5579 19.4812 15.7839L16.5562 16.6377C16.0219 16.7934 15.6562 17.2454 15.6562 17.8983V18.9881V19.7214V24.2114" stroke="#D2E9E6" stroke-width="0.969489" stroke-linecap="round" stroke-linejoin="round"/>
<path d="M19.5562 24.7387C20.364 24.7387 21.0187 24.0371 21.0187 23.1717C21.0187 22.3063 20.364 21.6048 19.5562 21.6048C18.7485 21.6048 18.0938 22.3063 18.0938 23.1717C18.0938 24.0371 18.7485 24.7387 19.5562 24.7387Z" stroke="#D2E9E6" stroke-width="0.969489" stroke-linecap="round" stroke-linejoin="round"/>
<path d="M15.6562 19.5155L21.0187 17.9485" stroke="#D2E9E6" stroke-width="0.969489" stroke-linecap="round" stroke-linejoin="round"/>
</g>
<defs>
<clipPath id="clip0_2337_4740">
<rect width="20" height="21.4286" fill="white" transform="translate(7.5 6.69748)"/>
</clipPath>
</defs>
</svg>
