<svg width="36" height="35" viewBox="0 0 36 35" fill="none" xmlns="http://www.w3.org/2000/svg">
<rect x="0.439453" width="35" height="35" rx="7.20299" fill="#E4D9EA"/>
<path d="M20.9905 16.4728C21.1675 16.4728 21.3414 16.428 21.4947 16.3427C21.6386 16.2626 21.7599 16.1494 21.8477 16.0135C21.9354 15.8776 21.987 15.7229 21.9979 15.5632C22.0087 15.4035 21.9784 15.2437 21.9098 15.098C21.8411 14.9522 21.7361 14.825 21.6042 14.7276C21.4722 14.6302 21.3174 14.5656 21.1533 14.5396C20.9892 14.5135 20.821 14.5268 20.6635 14.5783C20.5061 14.6297 20.3642 14.7178 20.2506 14.8346C20.1369 14.9514 20.0549 15.0934 20.0119 15.248L18.7349 14.5134C18.875 14.3769 18.97 14.2036 19.008 14.0152C19.046 13.8269 19.0253 13.6319 18.9484 13.4548C18.8716 13.2778 18.742 13.1266 18.5761 13.0202C18.4101 12.9139 18.2152 12.8571 18.0158 12.8571C17.8164 12.8572 17.6215 12.9139 17.4556 13.0203C17.2896 13.1267 17.1601 13.2779 17.0832 13.4549C17.0064 13.632 16.9857 13.827 17.0237 14.0153C17.0617 14.2037 17.1568 14.377 17.2969 14.5135L16.0097 15.2542C15.9803 15.1238 15.9227 15.0009 15.8406 14.8935C15.7585 14.7861 15.6537 14.6965 15.5331 14.6308C15.3596 14.5376 15.1615 14.4951 14.9633 14.509C14.765 14.5229 14.5754 14.5924 14.4177 14.7088C14.26 14.8252 14.1412 14.9835 14.076 15.1642C14.0107 15.3448 14.0018 15.5399 14.0504 15.7254C14.086 15.8528 14.1483 15.9718 14.2335 16.0752C14.3187 16.1786 14.4249 16.2641 14.5456 16.3266C14.6664 16.3891 14.7991 16.4271 14.9357 16.4384C15.0723 16.4497 15.2099 16.4341 15.3399 16.3924V17.8703C15.2036 17.824 15.0585 17.8065 14.9146 17.819C14.7706 17.8316 14.6312 17.8738 14.5057 17.9428C14.3626 18.0222 14.242 18.1343 14.1543 18.269C14.0666 18.4037 14.0145 18.557 14.0026 18.7155C13.9907 18.874 14.0194 19.0329 14.0861 19.1783C14.1528 19.3236 14.2556 19.4511 14.3853 19.5494C14.5151 19.6477 14.6679 19.7139 14.8304 19.7423C14.9929 19.7706 15.1601 19.7601 15.3174 19.7119C15.4748 19.6636 15.6174 19.5789 15.7329 19.4653C15.8483 19.3517 15.9331 19.2125 15.9797 19.0601L17.2497 19.7908C17.1153 19.9277 17.0253 20.0992 16.9904 20.2845C16.9556 20.4698 16.9774 20.6608 17.0534 20.8344C17.1293 21.0079 17.256 21.1564 17.4181 21.2619C17.5802 21.3674 17.7706 21.4252 17.9663 21.4284C18.1619 21.4316 18.3543 21.38 18.52 21.2799C18.6857 21.1797 18.8175 21.0354 18.8995 20.8644C18.9815 20.6935 19.0101 20.5033 18.9818 20.3169C18.9535 20.1306 18.8695 19.9562 18.7401 19.815L20.0053 19.0873C20.0772 19.3269 20.2428 19.5303 20.4672 19.655C20.6118 19.7355 20.7749 19.7805 20.9418 19.7855C21.1088 19.7905 21.2744 19.7555 21.424 19.6838C21.5735 19.6121 21.7022 19.5058 21.7985 19.3745C21.8949 19.2432 21.9559 19.0909 21.9761 18.9313C21.9964 18.7717 21.9752 18.6098 21.9144 18.4601C21.8537 18.3103 21.7553 18.1774 21.6281 18.0732C21.5009 17.969 21.3488 17.8968 21.1855 17.863C21.0222 17.8292 20.8527 17.8349 20.6922 17.8797V16.4251C20.7886 16.4553 20.8892 16.4714 20.9905 16.4728ZM20.7581 15.4404C20.7757 15.3829 20.816 15.3343 20.8704 15.3049C20.9248 15.2756 20.9889 15.2679 21.049 15.2834C21.1092 15.299 21.1607 15.3365 21.1926 15.388C21.2244 15.4396 21.2341 15.5011 21.2195 15.5594C21.2018 15.6169 21.1615 15.6654 21.1071 15.6947C21.0528 15.7241 20.9887 15.7318 20.9285 15.7162C20.8683 15.7007 20.8168 15.6632 20.785 15.6117C20.7532 15.5601 20.7435 15.4987 20.7581 15.4404ZM18.0159 13.6008C18.0783 13.602 18.1378 13.6267 18.1816 13.6696C18.2253 13.7125 18.2498 13.7703 18.2498 13.8304C18.2498 13.8905 18.2253 13.9483 18.1816 13.9912C18.1378 14.0341 18.0783 14.0588 18.0159 14.06C17.9534 14.0588 17.8939 14.0341 17.8501 13.9912C17.8064 13.9483 17.7819 13.8905 17.7819 13.8304C17.7819 13.7703 17.8064 13.7125 17.8501 13.6696C17.8939 13.6267 17.9534 13.602 18.0159 13.6008ZM15.234 15.5881C15.2014 15.639 15.1495 15.6758 15.0893 15.6905C15.029 15.7052 14.9652 15.6967 14.9114 15.6668C14.8575 15.637 14.8179 15.5881 14.8009 15.5305C14.784 15.473 14.791 15.4113 14.8205 15.3587C14.8531 15.3077 14.905 15.2709 14.9652 15.2562C15.0255 15.2415 15.0893 15.25 15.1432 15.2799C15.1971 15.3097 15.2367 15.3587 15.2536 15.4162C15.2706 15.4738 15.2635 15.5355 15.234 15.5881ZM15.2422 18.8452C15.0877 19.2533 14.5228 18.8372 14.8921 18.587C14.933 18.5651 14.9797 18.5551 15.0265 18.5584C15.0732 18.5617 15.118 18.578 15.1552 18.6055C15.1924 18.6329 15.2205 18.6702 15.2359 18.7128C15.2514 18.7554 15.2536 18.8014 15.2422 18.8452ZM17.9845 20.6849C17.922 20.6837 17.8625 20.659 17.8187 20.6161C17.775 20.5732 17.7505 20.5155 17.7505 20.4553C17.7505 20.3952 17.775 20.3375 17.8187 20.2945C17.8625 20.2516 17.922 20.2269 17.9845 20.2257C18.047 20.2268 18.1066 20.2514 18.1505 20.2944C18.1944 20.3373 18.2189 20.3951 18.2189 20.4553C18.2189 20.5155 18.1944 20.5733 18.1505 20.6163C18.1066 20.6592 18.047 20.6839 17.9845 20.6849ZM19.7956 18.2024L18.0159 19.226L16.2366 18.2026V16.1289L18.0159 15.1054L19.7956 16.1291V18.2024ZM20.7664 18.6974C20.7987 18.646 20.8507 18.6088 20.9112 18.5938C20.9717 18.5788 21.0358 18.5873 21.0899 18.6173C21.144 18.6473 21.1838 18.6966 21.2005 18.7545C21.2173 18.8124 21.2099 18.8743 21.1798 18.927C21.1474 18.9784 21.0955 19.0155 21.035 19.0305C20.9745 19.0454 20.9104 19.037 20.8563 19.007C20.8022 18.9769 20.7626 18.9277 20.7457 18.8699C20.7289 18.812 20.7363 18.7501 20.7664 18.6974Z" fill="#8952A4"/>
<path d="M11.5064 11.3681V13.5653H13.857V11.3681H22.0839V10.2695H13.857V8.03571H7.94141V13.5653H10.3311V11.3681H11.5064Z" fill="#8952A4"/>
<path d="M13.857 24.5519H11.5064V23.4533H13.857V21.2561H11.5064V13.5658H10.3311V21.2561H7.94141V26.7857H13.857V24.5519Z" fill="#8952A4"/>
<path d="M24.4345 11.3681H22.084V13.5653H24.4345V21.2556H25.6098V13.5653H27.9995V8.03571H22.084V10.2695H24.4345V11.3681Z" fill="#8952A4"/>
<path d="M24.4349 23.4533V21.2561H22.0844V23.4533H13.8574V24.5519H22.0844V26.7857H27.9999V21.2561H25.6102V23.4533H24.4349Z" fill="#8952A4"/>
</svg>
