<svg width="35" height="35" viewBox="0 0 35 35" fill="none" xmlns="http://www.w3.org/2000/svg">
<rect width="35" height="35" rx="7.20299" fill="#E4D9EA"/>
<path d="M21.9696 17.2778C21.9696 15.1498 21.6386 13.1641 21.0938 11.5568H14.411C13.8662 13.1641 13.5352 15.1498 13.5352 17.2778C13.5352 19.4058 13.8662 21.3916 14.411 22.9989H21.0938C21.6386 21.3916 21.9696 19.4058 21.9696 17.2778ZM20.7647 18.5492C20.7647 19.3768 20.2595 20.0758 19.5598 20.3391V21.7275H18.3549V20.4562H17.1499V21.7275H15.945V20.4562H14.7401V19.1848H15.945V15.3708H14.7401V14.0995H15.945V12.8281H17.1499V14.0995H18.3549V12.8281H19.5598V14.2166C20.2595 14.4799 20.7647 15.1788 20.7647 16.0065C20.7647 16.4967 20.5837 16.9397 20.2946 17.2778C20.5837 17.616 20.7647 18.059 20.7647 18.5492Z" fill="#8952A4"/>
<path d="M17.7485 26.8552C18.8254 26.8552 19.8204 25.8358 20.5752 24.2702H14.9219C15.6766 25.8358 16.6716 26.8552 17.7485 26.8552Z" fill="#8952A4"/>
<path d="M7.49805 16.642H12.343C12.3954 14.7688 12.6753 13.0401 13.1323 11.5566H9.03642C8.14911 13.0485 7.60139 14.7813 7.49805 16.642Z" fill="#8952A4"/>
<path d="M17.75 6.42856C19.4403 6.42856 20.9252 7.94099 21.9123 10.285H25.585C23.7049 7.95535 20.8704 6.42856 17.75 6.42856Z" fill="#8952A4"/>
<path d="M18.9539 15.3708H17.1465V16.6422H18.9539C19.2863 16.6422 19.5563 16.3572 19.5563 16.0065C19.5563 15.6558 19.2863 15.3708 18.9539 15.3708Z" fill="#8952A4"/>
<path d="M18.9539 17.9135H17.1465V19.1849H18.9539C19.2863 19.1849 19.5563 18.8999 19.5563 18.5492C19.5563 18.1985 19.2863 17.9135 18.9539 17.9135Z" fill="#8952A4"/>
<path d="M9.91406 10.285H13.5867C14.5738 7.94099 16.0587 6.42856 17.749 6.42856C14.6286 6.42856 11.7942 7.95535 9.91406 10.285Z" fill="#8952A4"/>
<path d="M13.5867 24.2702H9.91406C11.7942 26.5998 14.6286 28.1266 17.749 28.1266C16.0587 28.1266 14.5738 26.6141 13.5867 24.2702Z" fill="#8952A4"/>
<path d="M12.343 17.9133H7.49805C7.60139 19.774 8.14911 21.5068 9.03642 22.9986H13.1323C12.6753 21.5151 12.3954 19.7865 12.343 17.9133Z" fill="#8952A4"/>
<path d="M22.3652 11.5566C22.8223 13.0401 23.1021 14.7688 23.1546 16.642H27.9995C27.8962 14.7813 27.3485 13.0485 26.4611 11.5566H22.3652Z" fill="#8952A4"/>
<path d="M17.75 28.1266C20.8704 28.1266 23.7049 26.5998 25.585 24.2702H21.9123C20.9252 26.6141 19.4403 28.1266 17.75 28.1266Z" fill="#8952A4"/>
<path d="M22.3652 22.9986H26.4611C27.3485 21.5068 27.8962 19.774 27.9995 17.9133H23.1546C23.1021 19.7865 22.8223 21.5151 22.3652 22.9986Z" fill="#8952A4"/>
<path d="M17.7485 7.69992C16.6716 7.69992 15.6766 8.71932 14.9219 10.285H20.5751C19.8204 8.71932 18.8254 7.69992 17.7485 7.69992Z" fill="#8952A4"/>
<rect x="15.1895" y="11.9178" width="5.12553" height="8.13659" fill="#8952A4"/>
<path d="M20.3145 13.2738C21.0221 13.2738 21.5958 13.8475 21.5958 14.5552V20.0543H20.3145V13.2738Z" fill="#8952A4"/>
<path d="M13.9082 14.5552C13.9082 13.8475 14.4819 13.2738 15.1896 13.2738V21.4104C14.4819 21.4104 13.9082 20.8367 13.9082 20.129V14.5552Z" fill="#8952A4"/>
<rect x="15.1895" y="20.0543" width="5.12553" height="2.7122" fill="#8952A4"/>
<path d="M20.0054 16.8379C20.1389 16.8379 20.2699 16.8006 20.3854 16.7298C20.494 16.6632 20.5854 16.5692 20.6515 16.4562C20.7177 16.3432 20.7566 16.2147 20.7647 16.082C20.7729 15.9493 20.7501 15.8165 20.6983 15.6954C20.6466 15.5742 20.5675 15.4685 20.468 15.3876C20.3685 15.3066 20.2518 15.253 20.1281 15.2313C20.0045 15.2097 19.8777 15.2207 19.759 15.2635C19.6403 15.3063 19.5334 15.3794 19.4477 15.4765C19.362 15.5736 19.3002 15.6916 19.2678 15.82L18.3052 15.2096C18.4109 15.0962 18.4825 14.9521 18.5111 14.7956C18.5398 14.6391 18.5242 14.477 18.4662 14.3299C18.4083 14.1828 18.3106 14.0571 18.1855 13.9687C18.0605 13.8804 17.9135 13.8332 17.7633 13.8332C17.613 13.8332 17.466 13.8804 17.341 13.9688C17.2159 14.0572 17.1183 14.1829 17.0603 14.33C17.0024 14.4771 16.9868 14.6392 17.0155 14.7957C17.0441 14.9522 17.1158 15.0963 17.2214 15.2097L16.2511 15.8252C16.229 15.7169 16.1856 15.6147 16.1237 15.5255C16.0618 15.4362 15.9828 15.3618 15.8919 15.3071C15.7611 15.2297 15.6118 15.1944 15.4624 15.2059C15.313 15.2175 15.17 15.2752 15.0512 15.372C14.9323 15.4687 14.8428 15.6003 14.7936 15.7504C14.7444 15.9005 14.7377 16.0626 14.7743 16.2168C14.8012 16.3226 14.8481 16.4216 14.9123 16.5075C14.9765 16.5934 15.0566 16.6645 15.1476 16.7164C15.2386 16.7683 15.3387 16.7999 15.4416 16.8093C15.5446 16.8187 15.6483 16.8057 15.7463 16.7711V17.9992C15.6436 17.9608 15.5342 17.9462 15.4257 17.9566C15.3172 17.967 15.2121 18.0021 15.1175 18.0595C15.0096 18.1255 14.9187 18.2186 14.8526 18.3306C14.7865 18.4425 14.7473 18.5699 14.7383 18.7016C14.7293 18.8333 14.751 18.9654 14.8013 19.0862C14.8515 19.207 14.929 19.3129 15.0268 19.3946C15.1246 19.4763 15.2397 19.5313 15.3622 19.5549C15.4847 19.5784 15.6107 19.5697 15.7293 19.5296C15.8479 19.4895 15.9554 19.4191 16.0425 19.3247C16.1295 19.2303 16.1934 19.1147 16.2285 18.988L17.1858 19.5952C17.0845 19.7089 17.0166 19.8515 16.9904 20.0055C16.9641 20.1594 16.9806 20.3182 17.0378 20.4624C17.0951 20.6066 17.1906 20.7301 17.3127 20.8177C17.4349 20.9054 17.5785 20.9535 17.7259 20.9561C17.8734 20.9588 18.0184 20.9159 18.1433 20.8326C18.2682 20.7494 18.3676 20.6295 18.4294 20.4874C18.4912 20.3453 18.5127 20.1873 18.4914 20.0324C18.47 19.8776 18.4067 19.7327 18.3092 19.6153L19.2628 19.0106C19.3171 19.2097 19.4418 19.3787 19.611 19.4823C19.72 19.5492 19.8429 19.5866 19.9687 19.5908C20.0946 19.5949 20.2195 19.5659 20.3322 19.5063C20.4448 19.4467 20.5418 19.3584 20.6145 19.2492C20.6871 19.1401 20.7331 19.0136 20.7484 18.881C20.7636 18.7484 20.7476 18.6138 20.7018 18.4893C20.6561 18.3649 20.5819 18.2544 20.486 18.1678C20.3901 18.0812 20.2755 18.0212 20.1524 17.9932C20.0293 17.9651 19.9016 17.9698 19.7806 18.007V16.7982C19.8533 16.8233 19.9291 16.8367 20.0054 16.8379ZM19.8302 15.9799C19.8436 15.9321 19.8739 15.8917 19.9149 15.8674C19.9559 15.843 20.0042 15.8366 20.0496 15.8495C20.0949 15.8624 20.1337 15.8936 20.1577 15.9364C20.1817 15.9793 20.189 16.0304 20.178 16.0788C20.1647 16.1266 20.1343 16.167 20.0934 16.1913C20.0524 16.2157 20.0041 16.2221 19.9587 16.2092C19.9134 16.1963 19.8745 16.1651 19.8505 16.1223C19.8265 16.0794 19.8193 16.0284 19.8302 15.9799ZM17.7633 14.4512C17.8104 14.4522 17.8552 14.4727 17.8882 14.5084C17.9212 14.5441 17.9397 14.592 17.9397 14.642C17.9397 14.692 17.9212 14.74 17.8882 14.7756C17.8552 14.8113 17.8104 14.8318 17.7633 14.8328C17.7162 14.8318 17.6714 14.8113 17.6384 14.7756C17.6054 14.74 17.5869 14.692 17.5869 14.642C17.5869 14.592 17.6054 14.5441 17.6384 14.5084C17.6714 14.4727 17.7162 14.4522 17.7633 14.4512ZM15.6664 16.1027C15.6419 16.145 15.6028 16.1756 15.5574 16.1878C15.512 16.2 15.4639 16.1929 15.4233 16.1681C15.3827 16.1433 15.3528 16.1027 15.34 16.0548C15.3273 16.007 15.3326 15.9558 15.3548 15.9121C15.3793 15.8697 15.4185 15.8391 15.4639 15.8269C15.5093 15.8146 15.5574 15.8217 15.598 15.8465C15.6386 15.8714 15.6685 15.912 15.6813 15.9599C15.694 16.0077 15.6887 16.0589 15.6664 16.1027ZM15.6727 18.8094C15.5562 19.1485 15.1304 18.8028 15.4087 18.5948C15.4396 18.5766 15.4748 18.5683 15.5101 18.571C15.5453 18.5738 15.579 18.5874 15.6071 18.6102C15.6351 18.633 15.6563 18.664 15.6679 18.6994C15.6796 18.7347 15.6812 18.773 15.6727 18.8094ZM17.7396 20.3382C17.6925 20.3372 17.6477 20.3167 17.6147 20.281C17.5817 20.2454 17.5633 20.1974 17.5633 20.1474C17.5633 20.0975 17.5817 20.0495 17.6147 20.0138C17.6477 19.9781 17.6925 19.9576 17.7396 19.9566C17.7868 19.9575 17.8317 19.978 17.8648 20.0137C17.8978 20.0494 17.9164 20.0974 17.9164 20.1474C17.9164 20.1975 17.8978 20.2455 17.8648 20.2812C17.8317 20.3169 17.7868 20.3373 17.7396 20.3382ZM19.1048 18.2752L17.7633 19.1259L16.4221 18.2754V16.5521L17.7633 15.7016L19.1048 16.5523V18.2752ZM19.8365 18.6866C19.8609 18.6438 19.9 18.6129 19.9456 18.6005C19.9912 18.588 20.0396 18.595 20.0804 18.62C20.1212 18.645 20.1511 18.6859 20.1638 18.734C20.1764 18.7821 20.1708 18.8336 20.1481 18.8774C20.1237 18.9201 20.0845 18.9509 20.039 18.9634C19.9934 18.9758 19.9451 18.9688 19.9043 18.9438C19.8635 18.9189 19.8336 18.878 19.8209 18.8299C19.8083 18.7818 19.8138 18.7303 19.8365 18.6866Z" fill="#E4D9EA"/>
</svg>
