<svg width="35" height="35" viewBox="0 0 35 35" fill="none" xmlns="http://www.w3.org/2000/svg">
<rect width="35" height="35" rx="5" fill="#F3F4F7"/>
<path d="M22.7503 13.265C22.6978 13.2563 22.6366 13.2563 22.5841 13.265C21.3766 13.2213 20.4141 12.2325 20.4141 11.0075C20.4141 9.75625 21.4203 8.75 22.6716 8.75C23.9228 8.75 24.9291 9.765 24.9291 11.0075C24.9203 12.2325 23.9578 13.2213 22.7503 13.265Z" stroke="#2B2C30" stroke-width="1.5" stroke-linecap="round" stroke-linejoin="round"/>
<path d="M21.8485 19.635C23.0473 19.8363 24.3685 19.6263 25.296 19.005C26.5298 18.1825 26.5298 16.835 25.296 16.0125C24.3598 15.3913 23.021 15.1813 21.8223 15.3913" stroke="#2B2C30" stroke-width="1.5" stroke-linecap="round" stroke-linejoin="round"/>
<path d="M12.2237 13.265C12.2762 13.2563 12.3374 13.2563 12.3899 13.265C13.5974 13.2213 14.5599 12.2325 14.5599 11.0075C14.5599 9.75625 13.5537 8.75 12.3024 8.75C11.0512 8.75 10.0449 9.765 10.0449 11.0075C10.0537 12.2325 11.0162 13.2213 12.2237 13.265Z" stroke="#2B2C30" stroke-width="1.5" stroke-linecap="round" stroke-linejoin="round"/>
<path d="M13.1248 19.635C11.926 19.8363 10.6048 19.6263 9.67727 19.005C8.44352 18.1825 8.44352 16.835 9.67727 16.0125C10.6135 15.3913 11.9523 15.1813 13.151 15.3913" stroke="#2B2C30" stroke-width="1.5" stroke-linecap="round" stroke-linejoin="round"/>
<path d="M17.5003 19.8013C17.4478 19.7925 17.3866 19.7925 17.3341 19.8013C16.1266 19.7575 15.1641 18.7688 15.1641 17.5438C15.1641 16.2925 16.1703 15.2863 17.4216 15.2863C18.6728 15.2863 19.6791 16.3013 19.6791 17.5438C19.6703 18.7688 18.7078 19.7663 17.5003 19.8013Z" stroke="#2B2C30" stroke-width="1.5" stroke-linecap="round" stroke-linejoin="round"/>
<path d="M14.9546 22.5575C13.7209 23.38 13.7209 24.7275 14.9546 25.55C16.3546 26.4863 18.6471 26.4863 20.0471 25.55C21.2809 24.7275 21.2809 23.38 20.0471 22.5575C18.6559 21.63 16.3546 21.63 14.9546 22.5575Z" stroke="#2B2C30" stroke-width="1.5" stroke-linecap="round" stroke-linejoin="round"/>
</svg>
