<svg width="35" height="35" viewBox="0 0 35 35" fill="none" xmlns="http://www.w3.org/2000/svg">
<rect width="35" height="35" rx="6.92492" fill="#D2E9E6"/>
<path d="M18.6026 21.2612H16.3867V22.844H18.6026C19.0102 22.844 19.3413 22.4892 19.3413 22.0526C19.3413 21.6159 19.0102 21.2612 18.6026 21.2612Z" fill="black"/>
<path d="M25.25 6.96324H9V27.5923H25.25V6.96324ZM14.9091 10.1816H19.3409V11.7644H14.9091V10.1816ZM20.8182 22.0525C20.8182 23.0829 20.1988 23.9531 19.3409 24.2809V26.0095H17.8636V24.4267H16.3864V26.0095H14.9091V24.4267H13.4318V22.8439H14.9091V18.0955H13.4318V16.5128H14.9091V14.93H16.3864V16.5128H17.8636V14.93H19.3409V16.6585C20.1988 16.9863 20.8182 17.8565 20.8182 18.8869C20.8182 19.4972 20.5962 20.0487 20.2418 20.4697C20.5962 20.8908 20.8182 21.4423 20.8182 22.0525Z" fill="#46AA9D"/>
<path d="M18.6026 18.0961H16.3867V19.6788H18.6026C19.0102 19.6788 19.3413 19.3241 19.3413 18.8875C19.3413 18.4508 19.0102 18.0961 18.6026 18.0961Z" fill="black"/>
<rect x="12.75" y="13.6607" width="10" height="13.3929" fill="#46AA9D"/>
</svg>
