<svg width="35" height="35" viewBox="0 0 35 35" fill="none" xmlns="http://www.w3.org/2000/svg">
<rect width="35" height="35" rx="5" fill="#2D3FDD"/>
<path d="M24.3516 20.6752H24.1507C23.6615 19.1934 22.3363 18.1641 20.8359 18.1641C19.3259 18.1641 17.9938 19.2069 17.512 20.7034C16.276 20.8824 15.2821 21.891 15.0355 23.1864H14.9766C13.6839 23.1864 12.6328 24.3126 12.6328 25.6975C12.6328 27.0825 13.6839 28.2087 14.9766 28.2087H24.3516C26.2902 28.2087 27.9062 26.5191 27.9062 24.442C27.9062 22.3649 26.2902 20.6752 24.3516 20.6752Z" fill="white"/>
<path d="M22.7734 6.69644H7.5V11.7188H22.7734V6.69644ZM11.0547 10.4632H9.88281V9.2076H11.0547V10.4632ZM13.3984 10.4632H12.2266V9.2076H13.3984V10.4632ZM15.7422 10.4632H14.5703V9.2076H15.7422V10.4632Z" fill="white"/>
<path d="M20.4297 15.5692C21.2716 15.5692 22.0755 15.8136 22.7734 16.2463V13.058H7.5V16.8248H17.3428C18.1794 16.0382 19.2648 15.5692 20.4297 15.5692ZM11.0547 15.5692H9.88281V14.3136H11.0547V15.5692ZM13.3984 15.5692H12.2266V14.3136H13.3984V15.5692ZM15.7422 15.5692H14.5703V14.3136H15.7422V15.5692Z" fill="white"/>
<path d="M13.7492 22.0344C14.2247 20.8849 15.1425 20.0021 16.2663 19.6226C16.3005 19.5517 16.3443 19.4883 16.3815 19.4196H7.5V24.442H11.2563C11.6506 23.2509 12.5884 22.3331 13.7492 22.0344ZM12.2266 20.6752H13.3984V21.9308H12.2266V20.6752ZM11.0547 21.9308H9.88281V20.6752H11.0547V21.9308Z" fill="white"/>
</svg>
