<svg width="35" height="35" viewBox="0 0 35 35" fill="none" xmlns="http://www.w3.org/2000/svg">
<rect width="35" height="35" rx="5" fill="#2D3FDD"/>
<g clip-path="url(#clip0_2337_4872)">
<path d="M7.5 28.125H27.5V13.0162H7.5V28.125ZM16.9141 15.5274H18.0859V20.9175L21.0156 17.7786L22.1875 19.0342L24.117 16.9668L24.9455 17.8546L22.1875 20.8096L21.0156 19.5541L18.0859 22.693V23.0608H25.1172V24.3164H16.9141V15.5274ZM9.88281 21.8053H11.0547V18.0385H9.88281V16.7829H11.0547V15.5274H12.2266V16.7829H13.3984V15.5274H14.5703V16.8986C15.2509 17.1586 15.7422 17.8489 15.7422 18.6663C15.7422 19.1504 15.5661 19.5879 15.285 19.9219C15.5661 20.2559 15.7422 20.6934 15.7422 21.1775C15.7422 21.9949 15.2509 22.6852 14.5703 22.9452V24.3164H13.3984V23.0608H12.2266V24.3164H11.0547V23.0608H9.88281V21.8053Z" fill="white"/>
<path d="M14.5703 21.1775C14.5703 20.8311 14.3077 20.5497 13.9844 20.5497H12.2266V21.8053H13.9844C14.3077 21.8053 14.5703 21.5238 14.5703 21.1775Z" fill="white"/>
<path d="M14.5703 18.6663C14.5703 18.3199 14.3077 18.0385 13.9844 18.0385H12.2266V19.2941H13.9844C14.3077 19.2941 14.5703 19.0127 14.5703 18.6663Z" fill="white"/>
<path d="M7.5 11.7606H27.5V6.69644H7.5V11.7606ZM18.0859 9.24945H25.1172V10.505H18.0859V9.24945ZM14.5703 9.24945H15.7422V10.505H14.5703V9.24945ZM12.2266 9.24945H13.3984V10.505H12.2266V9.24945ZM9.88281 9.24945H11.0547V10.505H9.88281V9.24945Z" fill="white"/>
<rect x="8.75" y="14.7321" width="7.5" height="10.7143" fill="white"/>
<rect x="14" y="14" width="12" height="11" fill="white"/>
</g>
<line x1="21.25" y1="24.6071" x2="12.5" y2="24.6071" stroke="#2D3FDD"/>
<line x1="13" y1="14.7321" x2="13" y2="24.1071" stroke="#2D3FDD"/>
<line y1="-0.5" x2="7.32796" y2="-0.5" transform="matrix(-0.682318 0.731055 -0.682318 -0.731055 17.5 17.3438)" stroke="#2D3FDD"/>
<line y1="-0.5" x2="4.92257" y2="-0.5" transform="matrix(-0.682318 -0.731055 0.682318 -0.731055 20.875 21.0268)" stroke="#2D3FDD"/>
<line y1="-0.5" x2="3.66398" y2="-0.5" transform="matrix(-0.682318 0.731055 -0.682318 -0.731055 22.5 17.4107)" stroke="#2D3FDD"/>
<defs>
<clipPath id="clip0_2337_4872">
<rect width="20" height="21.4286" fill="white" transform="translate(7.5 6.69644)"/>
</clipPath>
</defs>
</svg>
