<svg width="35" height="35" viewBox="0 0 35 35" fill="none" xmlns="http://www.w3.org/2000/svg">
<rect width="35" height="35" rx="5" fill="#F3F4F7"/>
<rect x="14" y="11" width="6" height="11" fill="#8D91AC"/>
<rect x="13" y="11" width="7" height="11" rx="2" fill="#2B2C30"/>
<rect x="16" y="14" width="6" height="6" fill="#2B2C30"/>
<rect x="15" y="18" width="4.5" height="5" fill="#2B2C30"/>
<path d="M20.7394 10.0879H13.352C12.919 11.3112 12.0949 12.3785 11.0176 13.107V15.7746C11.0176 19.7038 13.4299 23.269 17.0457 24.7252C20.6615 23.269 23.0738 19.7038 23.0738 15.7746V13.107C21.9965 12.3785 21.1724 11.3112 20.7394 10.0879ZM20.3947 18.8477C20.3947 19.725 19.833 20.4659 19.0551 20.745V22.2168H17.7155V20.8691H16.3759V22.2168H15.0363V20.8691H13.6967V19.5215H15.0363V15.4785H13.6967V14.1309H15.0363V12.7832H16.3759V14.1309H17.7155V12.7832H19.0551V14.255C19.833 14.5341 20.3947 15.275 20.3947 16.1523C20.3947 16.672 20.1934 17.1415 19.872 17.5C20.1934 17.8585 20.3947 18.328 20.3947 18.8477Z" fill="#8D91AC"/>
<path d="M9.67917 6V8.06641C9.67917 9.1811 8.77781 10.0879 7.66979 10.0879H7V15.7746C7 21.851 11.056 27.2786 16.8631 28.9474L17.0469 29L17.2307 28.9474C23.0377 27.2786 27.0938 21.8509 27.0938 15.7746V10.0879H26.424C25.3159 10.0879 24.4146 9.1811 24.4146 8.06641V6L9.67917 6ZM24.4146 15.7746C24.4146 20.3486 21.547 24.4897 17.2791 26.0788L17.0469 26.1657L16.8147 26.0788C12.5467 24.4897 9.67917 20.3486 9.67917 15.7746V12.3456L10.0128 12.1508C11.0979 11.5178 11.8985 10.4584 12.2105 9.24561L12.34 8.74023H21.7537L21.8832 9.24561C22.1952 10.4584 22.9958 11.5178 24.081 12.1508L24.4146 12.3456V15.7746Z" fill="#8D91AC"/>
<path d="M20.4748 15.9163C20.6592 15.9164 20.8404 15.8693 21.0001 15.78C21.1501 15.696 21.2764 15.5774 21.3679 15.4349C21.4593 15.2924 21.5131 15.1303 21.5244 14.9629C21.5356 14.7955 21.5041 14.628 21.4326 14.4752C21.361 14.3224 21.2517 14.1891 21.1142 14.087C20.9767 13.9849 20.8154 13.9172 20.6444 13.8899C20.4735 13.8626 20.2982 13.8766 20.1341 13.9305C19.9701 13.9844 19.8223 14.0767 19.7039 14.1992C19.5854 14.3216 19.5 14.4704 19.4552 14.6325L18.1246 13.8625C18.2706 13.7195 18.3697 13.5378 18.4093 13.3403C18.4489 13.1429 18.4273 12.9385 18.3472 12.753C18.2671 12.5674 18.1321 12.4089 17.9592 12.2974C17.7863 12.1859 17.5832 12.1265 17.3755 12.1265C17.1677 12.1265 16.9646 12.186 16.7918 12.2975C16.6189 12.409 16.4839 12.5675 16.4038 12.7531C16.3238 12.9386 16.3022 13.143 16.3418 13.3404C16.3814 13.5379 16.4805 13.7196 16.6265 13.8626L15.2853 14.639C15.2547 14.5023 15.1947 14.3735 15.1091 14.2609C15.0235 14.1483 14.9144 14.0545 14.7888 13.9855C14.6079 13.8879 14.4015 13.8433 14.195 13.8579C13.9885 13.8725 13.7909 13.9453 13.6266 14.0673C13.4623 14.1893 13.3386 14.3553 13.2706 14.5446C13.2025 14.734 13.1933 14.9385 13.2439 15.1329C13.281 15.2664 13.346 15.3912 13.4347 15.4996C13.5234 15.6079 13.6341 15.6976 13.7599 15.7631C13.8857 15.8285 14.024 15.8684 14.1663 15.8803C14.3087 15.8921 14.452 15.8757 14.5875 15.832V17.3811C14.4455 17.3326 14.2943 17.3143 14.1443 17.3274C13.9943 17.3405 13.849 17.3848 13.7183 17.4571C13.5692 17.5403 13.4435 17.6579 13.3521 17.799C13.2608 17.9402 13.2065 18.1009 13.1941 18.267C13.1818 18.4332 13.2116 18.5997 13.2811 18.7521C13.3507 18.9045 13.4577 19.0381 13.5929 19.1411C13.728 19.2442 13.8873 19.3136 14.0566 19.3433C14.2259 19.373 14.4001 19.362 14.564 19.3114C14.7279 19.2608 14.8766 19.1721 14.9969 19.053C15.1172 18.9339 15.2055 18.788 15.2541 18.6282L16.5772 19.3941C16.4373 19.5376 16.3434 19.7174 16.3071 19.9116C16.2708 20.1059 16.2936 20.3061 16.3727 20.488C16.4518 20.6699 16.5839 20.8256 16.7527 20.9362C16.9216 21.0467 17.12 21.1074 17.3239 21.1107C17.5277 21.114 17.7281 21.0599 17.9008 20.955C18.0734 20.85 18.2108 20.6987 18.2962 20.5195C18.3817 20.3403 18.4114 20.1409 18.382 19.9457C18.3525 19.7504 18.265 19.5676 18.1301 19.4196L19.4483 18.6568C19.5233 18.9079 19.6957 19.1211 19.9296 19.2518C20.0802 19.3362 20.2501 19.3833 20.4241 19.3886C20.598 19.3938 20.7706 19.3572 20.9264 19.282C21.0822 19.2068 21.2163 19.0955 21.3167 18.9578C21.4171 18.8202 21.4807 18.6606 21.5017 18.4933C21.5228 18.326 21.5007 18.1563 21.4374 17.9993C21.3741 17.8423 21.2716 17.703 21.1391 17.5938C21.0066 17.4846 20.8481 17.4089 20.6779 17.3735C20.5078 17.3381 20.3312 17.3441 20.164 17.3909V15.8663C20.2645 15.8979 20.3692 15.9148 20.4748 15.9163ZM20.2326 14.8341C20.251 14.7738 20.293 14.7229 20.3497 14.6922C20.4063 14.6615 20.4731 14.6534 20.5358 14.6696C20.5985 14.6859 20.6522 14.7253 20.6853 14.7793C20.7185 14.8333 20.7286 14.8978 20.7134 14.9589C20.695 15.0191 20.653 15.0701 20.5963 15.1008C20.5397 15.1315 20.4729 15.1396 20.4102 15.1233C20.3475 15.107 20.2939 15.0677 20.2607 15.0137C20.2275 14.9597 20.2175 14.8952 20.2326 14.8341ZM17.3755 12.906C17.4406 12.9072 17.5026 12.9331 17.5482 12.9781C17.5938 13.0231 17.6193 13.0836 17.6193 13.1466C17.6193 13.2096 17.5938 13.2701 17.5482 13.3151C17.5026 13.3601 17.4406 13.386 17.3755 13.3872C17.3104 13.386 17.2484 13.3601 17.2029 13.3151C17.1573 13.2701 17.1317 13.2096 17.1317 13.1466C17.1317 13.0836 17.1573 13.0231 17.2029 12.9781C17.2484 12.9331 17.3104 12.9072 17.3755 12.906ZM14.4771 14.989C14.4432 15.0424 14.3891 15.0809 14.3263 15.0963C14.2636 15.1117 14.1971 15.1028 14.141 15.0715C14.0849 15.0402 14.0436 14.9889 14.0259 14.9286C14.0082 14.8683 14.0156 14.8037 14.0463 14.7485C14.0802 14.6951 14.1343 14.6565 14.1971 14.6411C14.2599 14.6257 14.3264 14.6346 14.3825 14.6659C14.4386 14.6972 14.4799 14.7485 14.4976 14.8088C14.5152 14.8692 14.5079 14.9338 14.4771 14.989ZM14.4857 18.403C14.3246 18.8307 13.7361 18.3947 14.1208 18.1324C14.1635 18.1094 14.2122 18.0989 14.2609 18.1024C14.3096 18.1058 14.3562 18.123 14.395 18.1517C14.4338 18.1805 14.463 18.2196 14.4791 18.2642C14.4952 18.3089 14.4975 18.3571 14.4857 18.403ZM17.3428 20.3313C17.2777 20.3301 17.2157 20.3042 17.1701 20.2592C17.1246 20.2142 17.099 20.1537 17.099 20.0907C17.099 20.0277 17.1246 19.9672 17.1701 19.9222C17.2157 19.8772 17.2777 19.8513 17.3428 19.8501C17.408 19.8512 17.4701 19.877 17.5158 19.922C17.5615 19.967 17.5871 20.0276 17.5871 20.0907C17.5871 20.1538 17.5615 20.2144 17.5158 20.2594C17.4701 20.3044 17.408 20.3302 17.3428 20.3313ZM19.2298 17.7292L17.3755 18.8022L15.5217 17.7294V15.5558L17.3755 14.4831L19.2298 15.556V17.7292ZM20.2413 18.2481C20.2749 18.1942 20.3291 18.1552 20.3921 18.1395C20.4552 18.1238 20.522 18.1326 20.5784 18.1641C20.6348 18.1956 20.6761 18.2473 20.6936 18.3079C20.7111 18.3686 20.7034 18.4335 20.672 18.4888C20.6383 18.5426 20.5842 18.5815 20.5212 18.5972C20.4582 18.6129 20.3913 18.604 20.335 18.5725C20.2787 18.5411 20.2373 18.4895 20.2198 18.4288C20.2023 18.3682 20.21 18.3033 20.2413 18.2481Z" fill="#FBEEEF"/>
<path d="M20.7394 10.0879H13.352C12.919 11.3112 12.0949 12.3785 11.0176 13.107V15.7746C11.0176 19.7038 13.4299 23.269 17.0457 24.7252C20.6615 23.269 23.0738 19.7038 23.0738 15.7746V13.107C21.9965 12.3785 21.1724 11.3112 20.7394 10.0879ZM20.3947 18.8477C20.3947 19.725 19.7779 19.7209 19 20L19.0551 22.2168H17.7155V20.8691H16.3759V22.2168H15.0363V20.8691H13.6967V19.5215H15.0363V15.4785H13.6967V14.1309H15.0363V12.7832H16.3759V14.1309H17.7155V12.7832H19.0551V14.255C19.833 14.5341 20.3947 15.275 20.3947 16.1523C20.3947 16.672 20.1934 17.1415 19.872 17.5C20.1934 17.8585 20.3947 18.328 20.3947 18.8477Z" fill="#2B2C30"/>
<path d="M9.67917 6V8.06641C9.67917 9.1811 8.77781 10.0879 7.66979 10.0879H7V15.7746C7 21.851 11.056 27.2786 16.8631 28.9474L17.0469 29L17.2307 28.9474C23.0377 27.2786 27.0938 21.8509 27.0938 15.7746V10.0879H26.424C25.3159 10.0879 24.4146 9.1811 24.4146 8.06641V6L9.67917 6ZM24.4146 15.7746C24.4146 20.3486 21.547 24.4897 17.2791 26.0788L17.0469 26.1657L16.8147 26.0788C12.5467 24.4897 9.67917 20.3486 9.67917 15.7746V12.3456L10.0128 12.1508C11.0979 11.5178 11.8985 10.4584 12.2105 9.24561L12.34 8.74023H21.7537L21.8832 9.24561C22.1952 10.4584 22.9958 11.5178 24.081 12.1508L24.4146 12.3456V15.7746Z" fill="#2B2C30"/>
<path d="M20.4748 15.9163C20.6592 15.9164 20.8404 15.8693 21.0001 15.78C21.1501 15.696 21.2764 15.5774 21.3679 15.4349C21.4593 15.2924 21.5131 15.1303 21.5244 14.9629C21.5356 14.7955 21.5041 14.628 21.4326 14.4752C21.361 14.3224 21.2517 14.1891 21.1142 14.087C20.9767 13.9849 20.8154 13.9172 20.6444 13.8899C20.4735 13.8626 20.2982 13.8766 20.1341 13.9305C19.9701 13.9844 19.8223 14.0767 19.7039 14.1992C19.5854 14.3216 19.5 14.4704 19.4552 14.6325L18.1246 13.8625C18.2706 13.7195 18.3697 13.5378 18.4093 13.3403C18.4489 13.1429 18.4273 12.9385 18.3472 12.753C18.2671 12.5674 18.1321 12.4089 17.9592 12.2974C17.7863 12.1859 17.5832 12.1265 17.3755 12.1265C17.1677 12.1265 16.9646 12.186 16.7918 12.2975C16.6189 12.409 16.4839 12.5675 16.4038 12.7531C16.3238 12.9386 16.3022 13.143 16.3418 13.3404C16.3814 13.5379 16.4805 13.7196 16.6265 13.8626L15.2853 14.639C15.2547 14.5023 15.1947 14.3735 15.1091 14.2609C15.0235 14.1483 14.9144 14.0545 14.7888 13.9855C14.6079 13.8879 14.4015 13.8433 14.195 13.8579C13.9885 13.8725 13.7909 13.9453 13.6266 14.0673C13.4623 14.1893 13.3386 14.3553 13.2706 14.5446C13.2025 14.734 13.1933 14.9385 13.2439 15.1329C13.281 15.2664 13.346 15.3912 13.4347 15.4996C13.5234 15.6079 13.6341 15.6976 13.7599 15.7631C13.8857 15.8285 14.024 15.8684 14.1663 15.8803C14.3087 15.8921 14.452 15.8757 14.5875 15.832V17.3811C14.4455 17.3326 14.2943 17.3143 14.1443 17.3274C13.9943 17.3405 13.849 17.3848 13.7183 17.4571C13.5692 17.5403 13.4435 17.6579 13.3521 17.799C13.2608 17.9402 13.2065 18.1009 13.1941 18.267C13.1818 18.4332 13.2116 18.5997 13.2811 18.7521C13.3507 18.9045 13.4577 19.0381 13.5929 19.1411C13.728 19.2442 13.8873 19.3136 14.0566 19.3433C14.2259 19.373 14.4001 19.362 14.564 19.3114C14.7279 19.2608 14.8766 19.1721 14.9969 19.053C15.1172 18.9339 15.2055 18.788 15.2541 18.6282L16.5772 19.3941C16.4373 19.5376 16.3434 19.7174 16.3071 19.9116C16.2708 20.1059 16.2936 20.3061 16.3727 20.488C16.4518 20.6699 16.5839 20.8256 16.7527 20.9362C16.9216 21.0467 17.12 21.1074 17.3239 21.1107C17.5277 21.114 17.7281 21.0599 17.9008 20.955C18.0734 20.85 18.2108 20.6987 18.2962 20.5195C18.3817 20.3403 18.4114 20.1409 18.382 19.9457C18.3525 19.7504 18.265 19.5676 18.1301 19.4196L19.4483 18.6568C19.5233 18.9079 19.6957 19.1211 19.9296 19.2518C20.0802 19.3362 20.2501 19.3833 20.4241 19.3886C20.598 19.3938 20.7706 19.3572 20.9264 19.282C21.0822 19.2068 21.2163 19.0955 21.3167 18.9578C21.4171 18.8202 21.4807 18.6606 21.5017 18.4933C21.5228 18.326 21.5007 18.1563 21.4374 17.9993C21.3741 17.8423 21.2716 17.703 21.1391 17.5938C21.0066 17.4846 20.8481 17.4089 20.6779 17.3735C20.5078 17.3381 20.3312 17.3441 20.164 17.3909V15.8663C20.2645 15.8979 20.3692 15.9148 20.4748 15.9163ZM20.2326 14.8341C20.251 14.7738 20.293 14.7229 20.3497 14.6922C20.4063 14.6615 20.4731 14.6534 20.5358 14.6696C20.5985 14.6859 20.6522 14.7253 20.6853 14.7793C20.7185 14.8333 20.7286 14.8978 20.7134 14.9589C20.695 15.0191 20.653 15.0701 20.5963 15.1008C20.5397 15.1315 20.4729 15.1396 20.4102 15.1233C20.3475 15.107 20.2939 15.0677 20.2607 15.0137C20.2275 14.9597 20.2175 14.8952 20.2326 14.8341ZM17.3755 12.906C17.4406 12.9072 17.5026 12.9331 17.5482 12.9781C17.5938 13.0231 17.6193 13.0836 17.6193 13.1466C17.6193 13.2096 17.5938 13.2701 17.5482 13.3151C17.5026 13.3601 17.4406 13.386 17.3755 13.3872C17.3104 13.386 17.2484 13.3601 17.2029 13.3151C17.1573 13.2701 17.1317 13.2096 17.1317 13.1466C17.1317 13.0836 17.1573 13.0231 17.2029 12.9781C17.2484 12.9331 17.3104 12.9072 17.3755 12.906ZM14.4771 14.989C14.4432 15.0424 14.3891 15.0809 14.3263 15.0963C14.2636 15.1117 14.1971 15.1028 14.141 15.0715C14.0849 15.0402 14.0436 14.9889 14.0259 14.9286C14.0082 14.8683 14.0156 14.8037 14.0463 14.7485C14.0802 14.6951 14.1343 14.6565 14.1971 14.6411C14.2599 14.6257 14.3264 14.6346 14.3825 14.6659C14.4386 14.6972 14.4799 14.7485 14.4976 14.8088C14.5152 14.8692 14.5079 14.9338 14.4771 14.989ZM14.4857 18.403C14.3246 18.8307 13.7361 18.3947 14.1208 18.1324C14.1635 18.1094 14.2122 18.0989 14.2609 18.1024C14.3096 18.1058 14.3562 18.123 14.395 18.1517C14.4338 18.1805 14.463 18.2196 14.4791 18.2642C14.4952 18.3089 14.4975 18.3571 14.4857 18.403ZM17.3428 20.3313C17.2777 20.3301 17.2157 20.3042 17.1701 20.2592C17.1246 20.2142 17.099 20.1537 17.099 20.0907C17.099 20.0277 17.1246 19.9672 17.1701 19.9222C17.2157 19.8772 17.2777 19.8513 17.3428 19.8501C17.408 19.8512 17.4701 19.877 17.5158 19.922C17.5615 19.967 17.5871 20.0276 17.5871 20.0907C17.5871 20.1538 17.5615 20.2144 17.5158 20.2594C17.4701 20.3044 17.408 20.3302 17.3428 20.3313ZM19.2298 17.7292L17.3755 18.8022L15.5217 17.7294V15.5558L17.3755 14.4831L19.2298 15.556V17.7292ZM20.2413 18.2481C20.2749 18.1942 20.3291 18.1552 20.3921 18.1395C20.4552 18.1238 20.522 18.1326 20.5784 18.1641C20.6348 18.1956 20.6761 18.2473 20.6936 18.3079C20.7111 18.3686 20.7034 18.4335 20.672 18.4888C20.6383 18.5426 20.5842 18.5815 20.5212 18.5972C20.4582 18.6129 20.3913 18.604 20.335 18.5725C20.2787 18.5411 20.2373 18.4895 20.2198 18.4288C20.2023 18.3682 20.21 18.3033 20.2413 18.2481Z" fill="#F3F4F7"/>
</svg>
