<svg width="35" height="35" viewBox="0 0 35 35" fill="none" xmlns="http://www.w3.org/2000/svg">
<rect width="35" height="35" rx="7.15618" fill="#DCDFFF" fill-opacity="0.7"/>
<g clip-path="url(#clip0_2337_4824)">
<path d="M6.57031 29.4686H29.4701V13.3224H6.57031V29.4686ZM17.3493 16.006H18.6911V21.7662L22.0456 18.4118L23.3873 19.7536L25.5966 17.5443L26.5453 18.493L23.3873 21.6509L22.0456 20.3091L18.6911 23.6636V24.0567H26.7418V25.3985H17.3493V16.006ZM9.29861 22.7149H10.6404V18.6896H9.29861V17.3478H10.6404V16.006H11.9822V17.3478H13.324V16.006H14.6657V17.4714C15.445 17.7492 16.0075 18.487 16.0075 19.3605C16.0075 19.8778 15.8059 20.3453 15.4841 20.7022C15.8059 21.0592 16.0075 21.5267 16.0075 22.044C16.0075 22.9175 15.445 23.6552 14.6657 23.9331V25.3985H13.324V24.0567H11.9822V25.3985H10.6404V24.0567H9.29861V22.7149Z" fill="#2D3FDD"/>
<path d="M14.666 22.044C14.666 21.6739 14.3653 21.3731 13.9951 21.3731H11.9824V22.7149H13.9951C14.3653 22.7149 14.666 22.4142 14.666 22.044Z" fill="#2D3FDD"/>
<path d="M14.666 19.3605C14.666 18.9903 14.3653 18.6896 13.9951 18.6896H11.9824V20.0314H13.9951C14.3653 20.0314 14.666 19.7306 14.666 19.3605Z" fill="#2D3FDD"/>
<path d="M6.57031 11.9806H29.4701V6.56879H6.57031V11.9806ZM18.6911 9.29708H26.7418V10.6389H18.6911V9.29708ZM14.6657 9.29708H16.0075V10.6389H14.6657V9.29708ZM11.9822 9.29708H13.324V10.6389H11.9822V9.29708ZM9.29861 9.29708H10.6404V10.6389H9.29861V9.29708Z" fill="#2D3FDD"/>
<rect x="8.48047" y="14.202" width="19.0832" height="13.3582" fill="#2D3FDD"/>
<path d="M23.0304 18.0982V23.6641C23.0304 25.3339 22.1955 26.447 20.2474 26.447H15.7947C13.8466 26.447 13.0117 25.3339 13.0117 23.6641V18.0982C13.0117 16.4284 13.8466 15.3152 15.7947 15.3152H20.2474C22.1955 15.3152 23.0304 16.4284 23.0304 18.0982Z" stroke="#E6E9FF" stroke-width="0.715618" stroke-miterlimit="10" stroke-linecap="round" stroke-linejoin="round"/>
<path d="M19.9723 15.3152V19.69C19.9723 19.9349 19.6829 20.0574 19.5048 19.8959L18.2135 18.7049C18.1077 18.6047 17.9407 18.6047 17.835 18.7049L16.5437 19.8959C16.3656 20.0574 16.0762 19.9349 16.0762 19.69V15.3152H19.9723Z" stroke="#E6E9FF" stroke-width="0.715618" stroke-miterlimit="10" stroke-linecap="round" stroke-linejoin="round"/>
<path d="M18.7148 21.9943H21.0804" stroke="#E6E9FF" stroke-width="0.715618" stroke-miterlimit="10" stroke-linecap="round" stroke-linejoin="round"/>
<path d="M16.3516 24.2207H21.0826" stroke="#E6E9FF" stroke-width="0.715618" stroke-miterlimit="10" stroke-linecap="round" stroke-linejoin="round"/>
</g>
<defs>
<clipPath id="clip0_2337_4824">
<rect width="22.8998" height="22.8998" fill="white" transform="translate(6.57031 6.56877)"/>
</clipPath>
</defs>
</svg>
