<svg width="35" height="35" viewBox="0 0 35 35" fill="none" xmlns="http://www.w3.org/2000/svg">
<rect width="35" height="35" rx="6.92492" fill="#D2E9E6"/>
<g clip-path="url(#clip0_2337_4754)">
<path d="M24.4282 15.6631H22.0199V14.3518H21.4277C21.101 14.3518 20.8355 14.0674 20.8355 13.7173V13.0828H18.4667V10.5025H19.6511V6.69545H16.0979V7.96446H8.95198V13.0828H7.76758V16.9321H11.3208V13.0828H10.1364V9.23347H16.0979V10.5025H17.2823V13.0828H14.9135V13.7173C14.9135 14.0674 14.6086 14.3518 14.2818 14.3518H13.6896V17.3609C13.6896 18.5954 14.0803 19.7556 14.6784 20.7391H12.5052V19.4701H8.95198V23.2771H10.1364V27.0842H16.0979V28.3532H19.6511V27.0842H26.797V24.5461H27.9814V20.7391H26.797V18.2011H27.9814V14.3518H24.4282V15.6631ZM17.2823 24.5461H16.0979V25.8152H11.3208V23.2771H12.5052V22.0081H15.7082C16.1698 22.4422 16.6975 22.7975 17.2823 23.0605V24.5461ZM15.6792 18.0152L16.5166 17.118L17.2823 17.9384L19.2324 15.849L20.0698 16.7462L17.2823 19.7328L15.6792 18.0152ZM25.6126 20.7391H24.4282V24.5461H25.6126V25.8152H19.6511V24.5461H18.4667V23.0605C20.6036 22.0995 22.0199 19.8754 22.0199 17.3609V16.9321H24.4282V18.2011H25.6126V20.7391Z" fill="#46AA9D"/>
<rect x="15.3477" y="14.8179" width="5.05347" height="5.41443" fill="#46AA9D"/>
<path d="M17.5475 15.0525L15.963 16.1608C15.455 16.5161 15.455 17.3113 15.963 17.6667L17.5475 18.7749C17.8317 18.9752 18.3002 18.9752 18.5845 18.7749L20.1611 17.6667C20.6664 17.3113 20.6664 16.5189 20.1611 16.1636L18.5845 15.0553C18.3002 14.8523 17.8317 14.8523 17.5475 15.0525Z" stroke="#D2E9E6" stroke-width="0.526981" stroke-linecap="round" stroke-linejoin="round"/>
<path d="M16.3835 18.028L16.3809 19.3506C16.3809 19.7088 16.6388 20.0923 16.9546 20.2051L17.7943 20.504C17.939 20.5548 18.1785 20.5548 18.3259 20.504L19.1655 20.2051C19.4814 20.0923 19.7393 19.7088 19.7393 19.3506V18.0421" stroke="#D2E9E6" stroke-width="0.526981" stroke-linecap="round" stroke-linejoin="round"/>
<path d="M20.5332 18.5701V16.8781" stroke="#D2E9E6" stroke-width="0.526981" stroke-linecap="round" stroke-linejoin="round"/>
</g>
<defs>
<clipPath id="clip0_2337_4754">
<rect width="20.2139" height="21.6577" fill="white" transform="translate(7.76758 6.69643)"/>
</clipPath>
</defs>
</svg>
