<svg width="18" height="18" viewBox="0 0 18 18" fill="none" xmlns="http://www.w3.org/2000/svg">
<path d="M8.54999 1.8L4.72499 5.625C4.57499 5.775 4.57499 6 4.72499 6.15L5.99999 7.425C6.14999 7.575 6.37499 7.575 6.52499 7.425L10.35 3.6C10.5 3.45 10.5 3.225 10.35 3.075L9.07499 1.8C8.92499 1.65 8.69999 1.65 8.54999 1.8Z" stroke="#17191C" stroke-miterlimit="10" stroke-linecap="round" stroke-linejoin="round"/>
<path d="M11.475 4.725L4.72499 11.475C4.57499 11.625 4.57499 11.85 4.72499 12L5.99999 13.275C6.14999 13.425 6.37499 13.425 6.52499 13.275L13.275 6.525C13.425 6.375 13.425 6.15 13.275 6L12 4.725C11.85 4.575 11.625 4.575 11.475 4.725Z" stroke="#17191C" stroke-miterlimit="10" stroke-linecap="round" stroke-linejoin="round"/>
<path d="M14.4 7.65L7.64998 14.4C7.49998 14.55 7.49998 14.775 7.64998 14.925L8.92498 16.2C9.07498 16.35 9.29998 16.35 9.44998 16.2L16.2 9.45C16.35 9.3 16.35 9.075 16.2 8.925L14.925 7.65C14.775 7.5 14.55 7.5 14.4 7.65Z" stroke="#17191C" stroke-miterlimit="10" stroke-linecap="round" stroke-linejoin="round"/>
<path d="M3.075 10.35L1.8 9.075C1.65 8.925 1.65 8.7 1.8 8.55L3.075 7.275C3.225 7.125 3.45 7.125 3.6 7.275L4.875 8.55C5.025 8.7 5.025 8.925 4.875 9.075L3.6 10.35C3.45 10.5 3.225 10.5 3.075 10.35Z" stroke="#17191C" stroke-miterlimit="10" stroke-linecap="round" stroke-linejoin="round"/>
</svg>
