<svg width="28" height="26" viewBox="0 0 28 26" fill="none" xmlns="http://www.w3.org/2000/svg">
<path fill-rule="evenodd" clip-rule="evenodd" d="M5.66944 11.1659L6.09335 16.5826C6.23991 18.8126 8.15591 20.5571 10.4873 20.5833H16.6505C18.9824 20.5577 20.899 18.813 21.0456 16.5826L21.4695 11.1659C21.5787 9.97781 21.1668 8.79977 20.3328 7.91453C19.4987 7.0293 18.3177 6.51679 17.0733 6.5H10.0646C8.82032 6.51708 7.63964 7.02973 6.80582 7.91493C5.97199 8.80012 5.56027 9.97799 5.66944 11.1659Z" stroke="white" stroke-width="1.69565" stroke-linecap="round" stroke-linejoin="round"/>
<path d="M16.9602 10.8333C16.9602 11.9944 16.3138 13.0673 15.2646 13.6478C14.2153 14.2284 12.9225 14.2284 11.8733 13.6478C10.824 13.0673 10.1776 11.9944 10.1776 10.8333" stroke="white" stroke-width="1.69565" stroke-linecap="round" stroke-linejoin="round"/>
</svg>
