<svg width="15" height="15" viewBox="0 0 15 15" fill="none" xmlns="http://www.w3.org/2000/svg">
<path d="M7.5 1.64062C6.34113 1.64062 5.20828 1.98427 4.24471 2.62811C3.28114 3.27194 2.53013 4.18705 2.08665 5.25771C1.64316 6.32838 1.52713 7.5065 1.75321 8.64311C1.9793 9.77971 2.53735 10.8238 3.3568 11.6432C4.17625 12.4627 5.22029 13.0207 6.3569 13.2468C7.4935 13.4729 8.67163 13.3568 9.74229 12.9134C10.8129 12.4699 11.7281 11.7189 12.3719 10.7553C13.0157 9.79173 13.3594 8.65887 13.3594 7.5C13.3576 5.94654 12.7397 4.4572 11.6413 3.35873C10.5428 2.26027 9.05347 1.64238 7.5 1.64062ZM7.5 12.8906C6.43384 12.8906 5.39162 12.5745 4.50513 11.9821C3.61865 11.3898 2.92772 10.5479 2.51971 9.5629C2.11171 8.5779 2.00496 7.49402 2.21296 6.44834C2.42096 5.40266 2.93436 4.44214 3.68826 3.68825C4.44215 2.93436 5.40266 2.42095 6.44834 2.21295C7.49402 2.00496 8.5779 2.11171 9.56291 2.51971C10.5479 2.92772 11.3898 3.61865 11.9821 4.50513C12.5745 5.39161 12.8906 6.43384 12.8906 7.5C12.889 8.92919 12.3206 10.2994 11.31 11.31C10.2994 12.3206 8.92919 12.889 7.5 12.8906ZM5.3908 7.49971C5.39083 7.94241 5.53013 8.37389 5.78899 8.73303C6.04784 9.09217 6.41313 9.36077 6.8331 9.50079C7.25308 9.64081 7.70647 9.64515 8.12905 9.5132C8.55164 9.38125 8.922 9.11969 9.18768 8.76557C9.22519 8.71636 9.28064 8.68398 9.34193 8.67549C9.40322 8.66701 9.46538 8.6831 9.51485 8.72027C9.56432 8.75743 9.59708 8.81265 9.606 8.87388C9.61492 8.93511 9.59926 8.99738 9.56244 9.04711C9.2377 9.47986 8.78504 9.79947 8.26858 9.96069C7.75211 10.1219 7.19801 10.1166 6.68476 9.94539C6.1715 9.77423 5.7251 9.44593 5.40878 9.00699C5.09245 8.56805 4.92224 8.04072 4.92224 7.49968C4.92224 6.95863 5.09245 6.4313 5.40878 5.99236C5.7251 5.55342 6.1715 5.22513 6.68476 5.05396C7.19801 4.8828 7.75211 4.87745 8.26858 5.03867C8.78504 5.19988 9.2377 5.5195 9.56244 5.95225C9.59979 6.00194 9.61587 6.06444 9.60714 6.12599C9.59841 6.18755 9.56559 6.24311 9.51589 6.28046C9.46619 6.31781 9.4037 6.33389 9.34214 6.32516C9.28059 6.31643 9.22503 6.2836 9.18768 6.23391C8.922 5.87979 8.55165 5.61823 8.12907 5.48628C7.70649 5.35432 7.25311 5.35866 6.83313 5.49867C6.41316 5.63868 6.04787 5.90727 5.78901 6.26641C5.53015 6.62554 5.39084 7.05701 5.3908 7.49971Z" fill="white"/>
</svg>
