<svg width="21" height="17" viewBox="0 0 21 17" fill="none" xmlns="http://www.w3.org/2000/svg">
<path d="M13.321 0.402832C13.1157 0.770492 12.9328 1.15019 12.7732 1.53986C11.2049 1.29183 9.60733 1.29183 8.03902 1.53986C7.87941 1.15019 7.69647 0.770492 7.49118 0.402832C6.01386 0.655253 4.57771 1.10731 3.22216 1.74659C0.798159 5.2448 -0.301144 9.49177 0.121172 13.7267C1.70085 14.9143 3.47381 15.82 5.36184 16.4039C5.79175 15.836 6.17544 15.2346 6.5092 14.6053C5.89322 14.3782 5.30116 14.0909 4.74164 13.7474C4.8951 13.6453 5.04026 13.5312 5.17578 13.4063C6.80737 14.1922 8.5951 14.6003 10.4061 14.6003C12.2171 14.6003 14.0048 14.1922 15.6364 13.4063C15.7811 13.5303 15.9259 13.644 16.0706 13.7474C15.508 14.0881 14.9165 14.3787 14.303 14.6157C14.6229 15.2592 14.9964 15.8746 15.4194 16.4556C17.305 15.8737 19.0749 14.9677 20.6497 13.7784C21.0822 9.54268 19.982 5.29224 17.5487 1.79828C16.2084 1.14576 14.7864 0.676412 13.321 0.402832ZM6.97435 11.308C6.45709 11.2708 5.97433 11.0348 5.62741 10.6493C5.28049 10.2638 5.09639 9.75894 5.11376 9.24064C5.09377 8.72166 5.27696 8.21533 5.6244 7.82929C5.97184 7.44325 6.45613 7.20792 6.97435 7.17332C7.49257 7.20792 7.97686 7.44325 8.3243 7.82929C8.67174 8.21533 8.85493 8.72166 8.83494 9.24064C8.85493 9.75963 8.67174 10.2659 8.3243 10.652C7.97686 11.038 7.49257 11.2734 6.97435 11.308ZM13.8379 11.308C13.3206 11.2708 12.8378 11.0348 12.4909 10.6493C12.144 10.2638 11.9599 9.75894 11.9773 9.24064C11.9573 8.72166 12.1405 8.21533 12.4879 7.82929C12.8354 7.44325 13.3196 7.20792 13.8379 7.17332C14.357 7.20533 14.8429 7.4399 15.1909 7.82654C15.5388 8.21317 15.7211 8.72097 15.6985 9.24064C15.7211 9.76031 15.5388 10.2681 15.1909 10.6547C14.8429 11.0414 14.357 11.2759 13.8379 11.308Z" fill="white"/>
</svg>
