<svg width="22" height="23" viewBox="0 0 22 23" fill="none" xmlns="http://www.w3.org/2000/svg">
<path fill-rule="evenodd" clip-rule="evenodd" d="M10.9177 2.35601C8.65017 2.35632 6.45674 3.16334 4.72975 4.6327C3.00276 6.10207 1.85486 8.13793 1.49141 10.3761C1.12795 12.6143 1.57264 14.9088 2.74592 16.8491C3.91921 18.7895 5.74456 20.2491 7.89544 20.9669C8.37299 21.0556 8.57766 20.7622 8.57766 20.5098V18.8861C5.92383 19.4592 5.36442 17.6036 5.36442 17.6036C5.1778 17.0188 4.78502 16.5218 4.25922 16.205C3.39281 15.6183 4.32745 15.6251 4.32745 15.6251C4.63008 15.6679 4.91894 15.7792 5.17197 15.9507C5.425 16.1221 5.6355 16.3491 5.78739 16.6143C6.05164 17.0883 6.4933 17.4379 7.01527 17.5863C7.53723 17.7347 8.09676 17.6698 8.57084 17.4057C8.60935 16.9217 8.82276 16.4682 9.17119 16.13C7.05631 15.8844 4.82546 15.0657 4.82546 11.409C4.81 10.4593 5.16195 9.54032 5.80786 8.8439C5.5155 8.02128 5.54968 7.11787 5.90337 6.31969C5.90337 6.31969 6.70156 6.06045 8.5299 7.29526C10.0932 6.86884 11.7421 6.86884 13.3054 7.29526C15.1269 6.06045 15.9251 6.31969 15.9251 6.31969C16.2788 7.11787 16.313 8.02128 16.0206 8.8439C16.6665 9.54032 17.0185 10.4593 17.003 11.409C17.003 15.0794 14.7722 15.8844 12.6437 16.1232C12.8717 16.3543 13.0475 16.6316 13.1593 16.9364C13.2711 17.2411 13.3163 17.5664 13.2918 17.8901V20.5098C13.2918 20.8236 13.4623 21.0624 13.974 20.9669C16.1277 20.2482 17.9549 18.7858 19.128 16.8418C20.3011 14.8979 20.7434 12.5997 20.3754 10.3592C20.0075 8.11878 18.8535 6.08268 17.1203 4.61604C15.3871 3.14941 13.1881 2.34817 10.9177 2.35601Z" fill="white"/>
</svg>
