<svg width="19" height="20" viewBox="0 0 19 20" fill="none" xmlns="http://www.w3.org/2000/svg">
<path fill-rule="evenodd" clip-rule="evenodd" d="M5.4796 1.03199C6.47342 0.986241 6.79029 0.976074 9.32184 0.976074C11.8534 0.976074 12.1703 0.987088 13.1632 1.03199C14.1562 1.0769 14.834 1.23533 15.427 1.46493C16.0481 1.69962 16.6115 2.06647 17.0775 2.54093C17.5519 3.00606 17.9179 3.56863 18.1518 4.1905C18.3822 4.78357 18.5398 5.46136 18.5856 6.45263C18.6313 7.44814 18.6415 7.76501 18.6415 10.2957C18.6415 12.8273 18.6305 13.1441 18.5856 14.1379C18.5407 15.1292 18.3822 15.807 18.1518 16.4001C17.9179 17.022 17.5513 17.5855 17.0775 18.0513C16.6115 18.5258 16.0481 18.8918 15.427 19.1257C14.834 19.3561 14.1562 19.5137 13.1649 19.5594C12.1703 19.6052 11.8534 19.6154 9.32184 19.6154C6.79029 19.6154 6.47342 19.6043 5.4796 19.5594C4.48833 19.5145 3.81054 19.3561 3.21747 19.1257C2.59553 18.8918 2.03203 18.5252 1.5662 18.0513C1.09207 17.5859 0.72516 17.0227 0.491055 16.4009C0.261453 15.8079 0.103866 15.1301 0.0581151 14.1388C0.0123641 13.1433 0.00219727 12.8264 0.00219727 10.2957C0.00219727 7.76416 0.0132114 7.44729 0.0581151 6.45433C0.103019 5.46136 0.261453 4.78357 0.491055 4.1905C0.725505 3.5687 1.0927 3.00548 1.56705 2.54008C2.03222 2.06605 2.59515 1.69915 3.21663 1.46493C3.80969 1.23533 4.48833 1.07774 5.4796 1.03199ZM13.0878 2.70953C12.105 2.66462 11.8102 2.6553 9.32184 2.6553C6.83349 2.6553 6.53865 2.66462 5.55586 2.70953C4.64677 2.75104 4.15367 2.9027 3.82494 3.03063C3.39031 3.20008 3.07937 3.40088 2.75319 3.72706C2.44398 4.02788 2.20602 4.39408 2.05675 4.79882C1.92882 5.12755 1.77717 5.62064 1.73565 6.52973C1.69075 7.51253 1.68143 7.80737 1.68143 10.2957C1.68143 12.7841 1.69075 13.0789 1.73565 14.0617C1.77717 14.9708 1.92882 15.4639 2.05675 15.7926C2.20587 16.1967 2.44394 16.5636 2.75319 16.8644C3.05396 17.1736 3.42081 17.4117 3.82494 17.5608C4.15367 17.6887 4.64677 17.8404 5.55586 17.8819C6.53865 17.9268 6.83265 17.9361 9.32184 17.9361C11.811 17.9361 12.105 17.9268 13.0878 17.8819C13.9969 17.8404 14.49 17.6887 14.8187 17.5608C15.2534 17.3914 15.5643 17.1906 15.8905 16.8644C16.1997 16.5636 16.4378 16.1967 16.5869 15.7926C16.7149 15.4639 16.8665 14.9708 16.908 14.0617C16.9529 13.0789 16.9622 12.7841 16.9622 10.2957C16.9622 7.80737 16.9529 7.51253 16.908 6.52973C16.8665 5.62064 16.7149 5.12755 16.5869 4.79882C16.4175 4.36419 16.2167 4.05325 15.8905 3.72706C15.5897 3.41788 15.2235 3.17992 14.8187 3.03063C14.49 2.9027 13.9969 2.75104 13.0878 2.70953ZM8.13147 13.1687C8.79626 13.4454 9.53651 13.4828 10.2258 13.2744C10.9151 13.066 11.5106 12.6247 11.9107 12.026C12.3108 11.4273 12.4906 10.7082 12.4194 9.99164C12.3482 9.27508 12.0305 8.60545 11.5204 8.09713C11.1953 7.77219 10.8021 7.52339 10.3693 7.36863C9.93647 7.21386 9.4747 7.157 9.01725 7.20212C8.5598 7.24724 8.11804 7.39322 7.72378 7.62956C7.32951 7.8659 6.99256 8.18672 6.73716 8.56891C6.48177 8.95111 6.3143 9.38518 6.24679 9.83987C6.17929 10.2946 6.21344 10.7586 6.34679 11.1985C6.48013 11.6384 6.70936 12.0432 7.01796 12.3839C7.32655 12.7246 7.70685 12.9926 8.13147 13.1687ZM5.93457 6.90845C6.37939 6.46363 6.90747 6.11078 7.48866 5.87004C8.06985 5.6293 8.69277 5.5054 9.32184 5.5054C9.95091 5.5054 10.5738 5.6293 11.155 5.87004C11.7362 6.11077 12.2643 6.46363 12.7091 6.90845C13.1539 7.35327 13.5068 7.88135 13.7475 8.46254C13.9882 9.04373 14.1122 9.66664 14.1122 10.2957C14.1122 10.9248 13.9882 11.5477 13.7475 12.1289C13.5068 12.7101 13.1539 13.2382 12.7091 13.683C11.8107 14.5813 10.5923 15.086 9.32184 15.086C8.05137 15.086 6.83293 14.5813 5.93457 13.683C5.03621 12.7846 4.53152 11.5662 4.53152 10.2957C4.53152 9.02524 5.03621 7.80681 5.93457 6.90845ZM15.1746 6.2188C15.2848 6.11481 15.373 5.98977 15.4341 5.85107C15.4951 5.71237 15.5277 5.56284 15.5299 5.41132C15.5321 5.2598 15.5039 5.10938 15.4469 4.96896C15.39 4.82854 15.3054 4.70097 15.1983 4.59382C15.0911 4.48667 14.9635 4.40211 14.8231 4.34514C14.6827 4.28817 14.5323 4.25996 14.3808 4.26217C14.2292 4.26437 14.0797 4.29696 13.941 4.358C13.8023 4.41904 13.6773 4.50728 13.5733 4.61751C13.3711 4.83189 13.2603 5.11664 13.2646 5.41132C13.2689 5.70599 13.3879 5.9874 13.5963 6.19579C13.8047 6.40418 14.0861 6.52315 14.3808 6.52744C14.6754 6.53174 14.9602 6.42102 15.1746 6.2188Z" fill="white"/>
</svg>
