<svg width="28" height="28" viewBox="0 0 28 28" fill="none" xmlns="http://www.w3.org/2000/svg">
<path d="M9.33333 14C9.33333 18.5105 12.9895 22.1667 17.5 22.1667C22.0104 22.1667 25.6667 18.5105 25.6667 14C25.6667 9.48956 22.0104 5.83334 17.5 5.83334C12.9895 5.83334 9.33333 9.48956 9.33333 14Z" stroke="#023047" stroke-linecap="round" stroke-linejoin="round"/>
<path d="M9.84781 11.1417H25.1521M18.3166 5.87418C18.3166 5.87418 20.7666 9.10001 20.7666 14C20.7666 18.9 18.3166 22.1258 18.3166 22.1258V5.87418ZM16.6833 22.1258C16.6833 22.1258 14.2333 18.9 14.2333 14C14.2333 9.10001 16.6833 5.87418 16.6833 5.87418V22.1258ZM9.84781 16.8583H25.1521H9.84781Z" stroke="#023047" stroke-width="0.75" stroke-linecap="round" stroke-linejoin="round"/>
</svg>
