<svg width="22" height="21" viewBox="0 0 22 21" fill="none" xmlns="http://www.w3.org/2000/svg">
<path d="M19.6323 15.6667C19.6323 15.9744 19.564 16.2907 19.4187 16.5984C19.2734 16.9061 19.0853 17.1967 18.8375 17.4702C18.4187 17.9317 17.9571 18.265 17.4358 18.4787C16.9229 18.6924 16.3674 18.8035 15.7691 18.8035C14.8973 18.8035 13.9657 18.5984 12.9828 18.1796C11.9999 17.7608 11.017 17.1967 10.0426 16.4873C9.05969 15.7693 8.12807 14.9744 7.23918 14.0941C6.35884 13.2052 5.56396 12.2736 4.85456 11.2992C4.15371 10.3249 3.58961 9.3505 3.17935 8.38469C2.76909 7.41033 2.56396 6.4787 2.56396 5.58981C2.56396 5.00862 2.66653 4.45306 2.87166 3.94024C3.07679 3.41887 3.40157 2.94024 3.85456 2.51289C4.40157 1.97443 4.99986 1.70947 5.63234 1.70947C5.87166 1.70947 6.11097 1.76075 6.32465 1.86332C6.54687 1.96588 6.74345 2.11973 6.8973 2.34195L8.8802 5.13682C9.03405 5.3505 9.14516 5.54708 9.22208 5.73511C9.29901 5.9146 9.34174 6.09409 9.34174 6.25648C9.34174 6.46161 9.28191 6.66674 9.16226 6.86332C9.05114 7.0599 8.88875 7.26503 8.68362 7.47016L8.03405 8.14537C7.94003 8.23939 7.8973 8.3505 7.8973 8.48725C7.8973 8.55563 7.90585 8.61546 7.92294 8.68383C7.94858 8.75221 7.97422 8.80349 7.99132 8.85477C8.14516 9.13682 8.41012 9.50434 8.78619 9.94879C9.1708 10.3932 9.58106 10.8462 10.0255 11.2992C10.487 11.7522 10.9315 12.171 11.3845 12.5556C11.8289 12.9317 12.1964 13.1881 12.487 13.342C12.5298 13.359 12.5811 13.3847 12.6409 13.4103C12.7093 13.436 12.7776 13.4445 12.8546 13.4445C12.9999 13.4445 13.111 13.3932 13.205 13.2992L13.8546 12.6582C14.0682 12.4445 14.2734 12.2821 14.4699 12.1796C14.6665 12.0599 14.8631 12.0001 15.0768 12.0001C15.2392 12.0001 15.4101 12.0343 15.5982 12.1112C15.7862 12.1881 15.9828 12.2992 16.1964 12.4445L19.0255 14.4531C19.2477 14.6069 19.4016 14.7864 19.4956 15.0001C19.5811 15.2137 19.6323 15.4274 19.6323 15.6667Z" stroke="white" stroke-width="1.28205" stroke-miterlimit="10"/>
</svg>
