<svg width="22" height="18" viewBox="0 0 22 18" fill="none" xmlns="http://www.w3.org/2000/svg">
<path d="M19.0071 5.19901C19.0211 5.38478 19.0211 5.56949 19.0211 5.75421C19.0211 11.4071 14.6528 17.9209 6.66949 17.9209C4.20994 17.9209 1.925 17.2192 0.00219727 16.0005C0.351406 16.0398 0.687681 16.0536 1.0509 16.0536C3.00495 16.0582 4.90367 15.4147 6.441 14.2266C5.53502 14.2105 4.65677 13.9161 3.92889 13.3845C3.20101 12.8529 2.65983 12.1108 2.38091 11.2616C2.64928 11.3009 2.91873 11.3275 3.20112 11.3275C3.59021 11.3275 3.98145 11.2744 4.34467 11.182C3.36145 10.9865 2.47735 10.4616 1.84268 9.69655C1.20801 8.93151 0.861954 7.97358 0.863363 6.98563V6.93255C1.44214 7.24996 2.11362 7.44847 2.82497 7.47501C2.22904 7.08498 1.74039 6.55572 1.40263 5.93445C1.06487 5.31319 0.888489 4.61923 0.88923 3.9145C0.88923 3.12045 1.10371 2.39221 1.47987 1.75739C2.57075 3.07907 3.93133 4.16032 5.47349 4.93113C7.01565 5.70193 8.70499 6.14509 10.4321 6.23191C10.3653 5.91344 10.3243 5.58329 10.3243 5.25208C10.324 4.69047 10.4361 4.13431 10.6542 3.6154C10.8723 3.09648 11.1921 2.62499 11.5953 2.22787C11.9985 1.83075 12.4772 1.51579 13.004 1.301C13.5309 1.08621 14.0955 0.975796 14.6657 0.976075C15.916 0.976075 17.0444 1.492 17.8377 2.32639C18.8096 2.14127 19.7417 1.79181 20.5926 1.29348C20.2686 2.28161 19.5899 3.1195 18.6838 3.65017C19.5458 3.55334 20.3882 3.33006 21.1832 2.98775C20.5895 3.8403 19.8538 4.58791 19.0071 5.19901Z" fill="white"/>
</svg>
